<svg width="448" height="384" viewBox="0 0 448 384" fill="none" xmlns="http://www.w3.org/2000/svg">
<path d="M416 160H32C14.327 160 0 174.327 0 192C0 209.673 14.327 224 32 224H416C433.673 224 448 209.673 448 192C448 174.327 433.673 160 416 160ZM416 320H32C14.327 320 0 334.327 0 352C0 369.673 14.327 384 32 384H416C433.673 384 448 369.673 448 352C448 334.327 433.673 320 416 320ZM416 0H32C14.327 0 0 14.327 0 32C0 49.673 14.327 64 32 64H416C433.673 64 448 49.673 448 32C448 14.327 433.673 0 416 0Z" fill="#C3CCD9"/>
</svg>
