<svg width="83" height="83" viewBox="0 0 83 83" fill="none" xmlns="http://www.w3.org/2000/svg">
<path d="M14.525 10.375C12.2453 10.375 10.375 12.2453 10.375 14.525V68.475C10.375 70.7547 12.2453 72.625 14.525 72.625H68.475C70.7547 72.625 72.625 70.7547 72.625 68.475V14.525C72.625 12.2453 70.7547 10.375 68.475 10.375H14.525ZM14.525 12.45H68.475C69.6335 12.45 70.55 13.3665 70.55 14.525V68.475C70.55 69.6335 69.6335 70.55 68.475 70.55H14.525C13.3665 70.55 12.45 69.6335 12.45 68.475V14.525C12.45 13.3665 13.3665 12.45 14.525 12.45ZM18.675 17.6375C18.3998 17.6375 18.1359 17.7468 17.9414 17.9414C17.7468 18.1359 17.6375 18.3998 17.6375 18.675C17.6375 18.9502 17.7468 19.2141 17.9414 19.4086C18.1359 19.6032 18.3998 19.7125 18.675 19.7125C18.9502 19.7125 19.2141 19.6032 19.4086 19.4086C19.6032 19.2141 19.7125 18.9502 19.7125 18.675C19.7125 18.3998 19.6032 18.1359 19.4086 17.9414C19.2141 17.7468 18.9502 17.6375 18.675 17.6375ZM22.825 17.6375C22.5498 17.6375 22.2859 17.7468 22.0914 17.9414C21.8968 18.1359 21.7875 18.3998 21.7875 18.675C21.7875 18.9502 21.8968 19.2141 22.0914 19.4086C22.2859 19.6032 22.5498 19.7125 22.825 19.7125C23.1002 19.7125 23.3641 19.6032 23.5586 19.4086C23.7532 19.2141 23.8625 18.9502 23.8625 18.675C23.8625 18.3998 23.7532 18.1359 23.5586 17.9414C23.3641 17.7468 23.1002 17.6375 22.825 17.6375ZM26.975 17.6375C26.6998 17.6375 26.4359 17.7468 26.2414 17.9414C26.0468 18.1359 25.9375 18.3998 25.9375 18.675C25.9375 18.9502 26.0468 19.2141 26.2414 19.4086C26.4359 19.6032 26.6998 19.7125 26.975 19.7125C27.2502 19.7125 27.5141 19.6032 27.7086 19.4086C27.9032 19.2141 28.0125 18.9502 28.0125 18.675C28.0125 18.3998 27.9032 18.1359 27.7086 17.9414C27.5141 17.7468 27.2502 17.6375 26.975 17.6375ZM31.125 17.6375C30.8498 17.6375 30.5859 17.7468 30.3914 17.9414C30.1968 18.1359 30.0875 18.3998 30.0875 18.675C30.0875 18.9502 30.1968 19.2141 30.3914 19.4086C30.5859 19.6032 30.8498 19.7125 31.125 19.7125C31.4002 19.7125 31.6641 19.6032 31.8586 19.4086C32.0532 19.2141 32.1625 18.9502 32.1625 18.675C32.1625 18.3998 32.0532 18.1359 31.8586 17.9414C31.6641 17.7468 31.4002 17.6375 31.125 17.6375ZM35.275 17.6375C34.9998 17.6375 34.7359 17.7468 34.5414 17.9414C34.3468 18.1359 34.2375 18.3998 34.2375 18.675C34.2375 18.9502 34.3468 19.2141 34.5414 19.4086C34.7359 19.6032 34.9998 19.7125 35.275 19.7125C35.5502 19.7125 35.8141 19.6032 36.0086 19.4086C36.2032 19.2141 36.3125 18.9502 36.3125 18.675C36.3125 18.3998 36.2032 18.1359 36.0086 17.9414C35.8141 17.7468 35.5502 17.6375 35.275 17.6375ZM39.425 17.6375C39.1498 17.6375 38.8859 17.7468 38.6914 17.9414C38.4968 18.1359 38.3875 18.3998 38.3875 18.675C38.3875 18.9502 38.4968 19.2141 38.6914 19.4086C38.8859 19.6032 39.1498 19.7125 39.425 19.7125C39.7002 19.7125 39.9641 19.6032 40.1586 19.4086C40.3532 19.2141 40.4625 18.9502 40.4625 18.675C40.4625 18.3998 40.3532 18.1359 40.1586 17.9414C39.9641 17.7468 39.7002 17.6375 39.425 17.6375ZM43.575 17.6375C43.2998 17.6375 43.0359 17.7468 42.8414 17.9414C42.6468 18.1359 42.5375 18.3998 42.5375 18.675C42.5375 18.9502 42.6468 19.2141 42.8414 19.4086C43.0359 19.6032 43.2998 19.7125 43.575 19.7125C43.8502 19.7125 44.1141 19.6032 44.3086 19.4086C44.5032 19.2141 44.6125 18.9502 44.6125 18.675C44.6125 18.3998 44.5032 18.1359 44.3086 17.9414C44.1141 17.7468 43.8502 17.6375 43.575 17.6375ZM47.725 17.6375C47.4498 17.6375 47.1859 17.7468 46.9914 17.9414C46.7968 18.1359 46.6875 18.3998 46.6875 18.675C46.6875 18.9502 46.7968 19.2141 46.9914 19.4086C47.1859 19.6032 47.4498 19.7125 47.725 19.7125C48.0002 19.7125 48.2641 19.6032 48.4586 19.4086C48.6532 19.2141 48.7625 18.9502 48.7625 18.675C48.7625 18.3998 48.6532 18.1359 48.4586 17.9414C48.2641 17.7468 48.0002 17.6375 47.725 17.6375ZM51.875 17.6375C51.5998 17.6375 51.3359 17.7468 51.1414 17.9414C50.9468 18.1359 50.8375 18.3998 50.8375 18.675C50.8375 18.9502 50.9468 19.2141 51.1414 19.4086C51.3359 19.6032 51.5998 19.7125 51.875 19.7125C52.1502 19.7125 52.4141 19.6032 52.6086 19.4086C52.8032 19.2141 52.9125 18.9502 52.9125 18.675C52.9125 18.3998 52.8032 18.1359 52.6086 17.9414C52.4141 17.7468 52.1502 17.6375 51.875 17.6375ZM56.025 17.6375C55.7498 17.6375 55.4859 17.7468 55.2914 17.9414C55.0968 18.1359 54.9875 18.3998 54.9875 18.675C54.9875 18.9502 55.0968 19.2141 55.2914 19.4086C55.4859 19.6032 55.7498 19.7125 56.025 19.7125C56.3002 19.7125 56.5641 19.6032 56.7586 19.4086C56.9532 19.2141 57.0625 18.9502 57.0625 18.675C57.0625 18.3998 56.9532 18.1359 56.7586 17.9414C56.5641 17.7468 56.3002 17.6375 56.025 17.6375ZM60.175 17.6375C59.8998 17.6375 59.6359 17.7468 59.4414 17.9414C59.2468 18.1359 59.1375 18.3998 59.1375 18.675C59.1375 18.9502 59.2468 19.2141 59.4414 19.4086C59.6359 19.6032 59.8998 19.7125 60.175 19.7125C60.4502 19.7125 60.7141 19.6032 60.9086 19.4086C61.1032 19.2141 61.2125 18.9502 61.2125 18.675C61.2125 18.3998 61.1032 18.1359 60.9086 17.9414C60.7141 17.7468 60.4502 17.6375 60.175 17.6375ZM64.325 17.6375C64.0498 17.6375 63.7859 17.7468 63.5914 17.9414C63.3968 18.1359 63.2875 18.3998 63.2875 18.675C63.2875 18.9502 63.3968 19.2141 63.5914 19.4086C63.7859 19.6032 64.0498 19.7125 64.325 19.7125C64.6002 19.7125 64.8641 19.6032 65.0586 19.4086C65.2532 19.2141 65.3625 18.9502 65.3625 18.675C65.3625 18.3998 65.2532 18.1359 65.0586 17.9414C64.8641 17.7468 64.6002 17.6375 64.325 17.6375ZM18.675 21.7875C18.3998 21.7875 18.1359 21.8968 17.9414 22.0914C17.7468 22.2859 17.6375 22.5498 17.6375 22.825C17.6375 23.1002 17.7468 23.3641 17.9414 23.5586C18.1359 23.7532 18.3998 23.8625 18.675 23.8625C18.9502 23.8625 19.2141 23.7532 19.4086 23.5586C19.6032 23.3641 19.7125 23.1002 19.7125 22.825C19.7125 22.5498 19.6032 22.2859 19.4086 22.0914C19.2141 21.8968 18.9502 21.7875 18.675 21.7875ZM64.325 21.7875C64.0498 21.7875 63.7859 21.8968 63.5914 22.0914C63.3968 22.2859 63.2875 22.5498 63.2875 22.825C63.2875 23.1002 63.3968 23.3641 63.5914 23.5586C63.7859 23.7532 64.0498 23.8625 64.325 23.8625C64.6002 23.8625 64.8641 23.7532 65.0586 23.5586C65.2532 23.3641 65.3625 23.1002 65.3625 22.825C65.3625 22.5498 65.2532 22.2859 65.0586 22.0914C64.8641 21.8968 64.6002 21.7875 64.325 21.7875ZM18.675 25.9375C18.3998 25.9375 18.1359 26.0468 17.9414 26.2414C17.7468 26.4359 17.6375 26.6998 17.6375 26.975C17.6375 27.2502 17.7468 27.5141 17.9414 27.7086C18.1359 27.9032 18.3998 28.0125 18.675 28.0125C18.9502 28.0125 19.2141 27.9032 19.4086 27.7086C19.6032 27.5141 19.7125 27.2502 19.7125 26.975C19.7125 26.6998 19.6032 26.4359 19.4086 26.2414C19.2141 26.0468 18.9502 25.9375 18.675 25.9375ZM64.325 25.9375C64.0498 25.9375 63.7859 26.0468 63.5914 26.2414C63.3968 26.4359 63.2875 26.6998 63.2875 26.975C63.2875 27.2502 63.3968 27.5141 63.5914 27.7086C63.7859 27.9032 64.0498 28.0125 64.325 28.0125C64.6002 28.0125 64.8641 27.9032 65.0586 27.7086C65.2532 27.5141 65.3625 27.2502 65.3625 26.975C65.3625 26.6998 65.2532 26.4359 65.0586 26.2414C64.8641 26.0468 64.6002 25.9375 64.325 25.9375ZM18.675 30.0875C18.3998 30.0875 18.1359 30.1968 17.9414 30.3914C17.7468 30.5859 17.6375 30.8498 17.6375 31.125C17.6375 31.4002 17.7468 31.6641 17.9414 31.8586C18.1359 32.0532 18.3998 32.1625 18.675 32.1625C18.9502 32.1625 19.2141 32.0532 19.4086 31.8586C19.6032 31.6641 19.7125 31.4002 19.7125 31.125C19.7125 30.8498 19.6032 30.5859 19.4086 30.3914C19.2141 30.1968 18.9502 30.0875 18.675 30.0875ZM64.325 30.0875C64.0498 30.0875 63.7859 30.1968 63.5914 30.3914C63.3968 30.5859 63.2875 30.8498 63.2875 31.125C63.2875 31.4002 63.3968 31.6641 63.5914 31.8586C63.7859 32.0532 64.0498 32.1625 64.325 32.1625C64.6002 32.1625 64.8641 32.0532 65.0586 31.8586C65.2532 31.6641 65.3625 31.4002 65.3625 31.125C65.3625 30.8498 65.2532 30.5859 65.0586 30.3914C64.8641 30.1968 64.6002 30.0875 64.325 30.0875ZM18.675 34.2375C18.3998 34.2375 18.1359 34.3468 17.9414 34.5414C17.7468 34.7359 17.6375 34.9998 17.6375 35.275C17.6375 35.5502 17.7468 35.8141 17.9414 36.0086C18.1359 36.2032 18.3998 36.3125 18.675 36.3125C18.9502 36.3125 19.2141 36.2032 19.4086 36.0086C19.6032 35.8141 19.7125 35.5502 19.7125 35.275C19.7125 34.9998 19.6032 34.7359 19.4086 34.5414C19.2141 34.3468 18.9502 34.2375 18.675 34.2375ZM64.325 34.2375C64.0498 34.2375 63.7859 34.3468 63.5914 34.5414C63.3968 34.7359 63.2875 34.9998 63.2875 35.275C63.2875 35.5502 63.3968 35.8141 63.5914 36.0086C63.7859 36.2032 64.0498 36.3125 64.325 36.3125C64.6002 36.3125 64.8641 36.2032 65.0586 36.0086C65.2532 35.8141 65.3625 35.5502 65.3625 35.275C65.3625 34.9998 65.2532 34.7359 65.0586 34.5414C64.8641 34.3468 64.6002 34.2375 64.325 34.2375ZM32.3125 36.3125C29.643 36.3125 28.0125 38.0815 28.0125 40.9772C28.0125 43.8718 29.6492 45.65 32.3125 45.65C34.5711 45.65 36.2067 44.26 36.3125 42.268H34.2334C34.0903 43.2277 33.3332 43.8546 32.3185 43.8546C31.0123 43.8546 30.0875 42.7544 30.0875 40.9772C30.0875 39.2 31.0114 38.1079 32.3125 38.1079C33.3261 38.1079 34.0842 38.7657 34.2274 39.7492H36.3064C36.213 37.7634 34.5275 36.3125 32.3125 36.3125ZM41.8344 36.3125C39.749 36.3125 38.3875 37.4304 38.3875 39.1454C38.3875 40.5283 39.3843 41.3952 40.9894 41.7148L42.1383 41.9559C43.1654 42.1655 43.5608 42.4545 43.5608 42.9711C43.5608 43.5853 42.9591 44.0086 42.0897 44.0086C41.1289 44.0086 40.467 43.2077 40.4058 42.5375H38.3875C38.4363 44.2214 39.4246 45.65 41.9924 45.65C44.2656 45.65 45.645 44.5378 45.6439 42.7118C45.6439 41.3163 44.8721 40.5295 43.1333 40.1788L42.0228 39.9579C41.0693 39.7608 40.4848 39.4674 40.4848 38.9569C40.4848 38.3417 41.0318 37.9478 41.8587 37.9478C42.6793 37.9478 43.2808 38.3905 43.342 39.042H45.2994C45.2569 37.4246 43.8461 36.3125 41.8344 36.3125ZM51.1719 36.3125C49.0865 36.3125 47.725 37.4304 47.725 39.1454C47.725 40.5283 48.7218 41.3952 50.3269 41.7148L51.4758 41.9559C52.5029 42.1655 52.8983 42.4545 52.8983 42.9711C52.8983 43.5853 52.2966 44.0086 51.4272 44.0086C50.4664 44.0086 49.8045 43.2077 49.7433 42.5375H47.725C47.7738 44.2214 48.7621 45.65 51.3299 45.65C53.6031 45.65 54.9825 44.5378 54.9814 42.7118C54.9814 41.3163 54.2096 40.5295 52.4708 40.1788L51.3603 39.9579C50.4068 39.7608 49.8223 39.4674 49.8223 38.9569C49.8223 38.3417 50.3693 37.9478 51.1962 37.9478C52.0168 37.9478 52.6183 38.3905 52.6795 39.042H54.6369C54.5944 37.4246 53.1836 36.3125 51.1719 36.3125ZM18.675 38.3875C18.3998 38.3875 18.1359 38.4968 17.9414 38.6914C17.7468 38.8859 17.6375 39.1498 17.6375 39.425C17.6375 39.7002 17.7468 39.9641 17.9414 40.1586C18.1359 40.3532 18.3998 40.4625 18.675 40.4625C18.9502 40.4625 19.2141 40.3532 19.4086 40.1586C19.6032 39.9641 19.7125 39.7002 19.7125 39.425C19.7125 39.1498 19.6032 38.8859 19.4086 38.6914C19.2141 38.4968 18.9502 38.3875 18.675 38.3875ZM64.325 38.3875C64.0498 38.3875 63.7859 38.4968 63.5914 38.6914C63.3968 38.8859 63.2875 39.1498 63.2875 39.425C63.2875 39.7002 63.3968 39.9641 63.5914 40.1586C63.7859 40.3532 64.0498 40.4625 64.325 40.4625C64.6002 40.4625 64.8641 40.3532 65.0586 40.1586C65.2532 39.9641 65.3625 39.7002 65.3625 39.425C65.3625 39.1498 65.2532 38.8859 65.0586 38.6914C64.8641 38.4968 64.6002 38.3875 64.325 38.3875ZM18.675 42.5375C18.3998 42.5375 18.1359 42.6468 17.9414 42.8414C17.7468 43.0359 17.6375 43.2998 17.6375 43.575C17.6375 43.8502 17.7468 44.1141 17.9414 44.3086C18.1359 44.5032 18.3998 44.6125 18.675 44.6125C18.9502 44.6125 19.2141 44.5032 19.4086 44.3086C19.6032 44.1141 19.7125 43.8502 19.7125 43.575C19.7125 43.2998 19.6032 43.0359 19.4086 42.8414C19.2141 42.6468 18.9502 42.5375 18.675 42.5375ZM64.325 42.5375C64.0498 42.5375 63.7859 42.6468 63.5914 42.8414C63.3968 43.0359 63.2875 43.2998 63.2875 43.575C63.2875 43.8502 63.3968 44.1141 63.5914 44.3086C63.7859 44.5032 64.0498 44.6125 64.325 44.6125C64.6002 44.6125 64.8641 44.5032 65.0586 44.3086C65.2532 44.1141 65.3625 43.8502 65.3625 43.575C65.3625 43.2998 65.2532 43.0359 65.0586 42.8414C64.8641 42.6468 64.6002 42.5375 64.325 42.5375ZM18.675 46.6875C18.3998 46.6875 18.1359 46.7968 17.9414 46.9914C17.7468 47.1859 17.6375 47.4498 17.6375 47.725C17.6375 48.0002 17.7468 48.2641 17.9414 48.4586C18.1359 48.6532 18.3998 48.7625 18.675 48.7625C18.9502 48.7625 19.2141 48.6532 19.4086 48.4586C19.6032 48.2641 19.7125 48.0002 19.7125 47.725C19.7125 47.4498 19.6032 47.1859 19.4086 46.9914C19.2141 46.7968 18.9502 46.6875 18.675 46.6875ZM64.325 46.6875C64.0498 46.6875 63.7859 46.7968 63.5914 46.9914C63.3968 47.1859 63.2875 47.4498 63.2875 47.725C63.2875 48.0002 63.3968 48.2641 63.5914 48.4586C63.7859 48.6532 64.0498 48.7625 64.325 48.7625C64.6002 48.7625 64.8641 48.6532 65.0586 48.4586C65.2532 48.2641 65.3625 48.0002 65.3625 47.725C65.3625 47.4498 65.2532 47.1859 65.0586 46.9914C64.8641 46.7968 64.6002 46.6875 64.325 46.6875ZM18.675 50.8375C18.3998 50.8375 18.1359 50.9468 17.9414 51.1414C17.7468 51.3359 17.6375 51.5998 17.6375 51.875C17.6375 52.1502 17.7468 52.4141 17.9414 52.6086C18.1359 52.8032 18.3998 52.9125 18.675 52.9125C18.9502 52.9125 19.2141 52.8032 19.4086 52.6086C19.6032 52.4141 19.7125 52.1502 19.7125 51.875C19.7125 51.5998 19.6032 51.3359 19.4086 51.1414C19.2141 50.9468 18.9502 50.8375 18.675 50.8375ZM64.325 50.8375C64.0498 50.8375 63.7859 50.9468 63.5914 51.1414C63.3968 51.3359 63.2875 51.5998 63.2875 51.875C63.2875 52.1502 63.3968 52.4141 63.5914 52.6086C63.7859 52.8032 64.0498 52.9125 64.325 52.9125C64.6002 52.9125 64.8641 52.8032 65.0586 52.6086C65.2532 52.4141 65.3625 52.1502 65.3625 51.875C65.3625 51.5998 65.2532 51.3359 65.0586 51.1414C64.8641 50.9468 64.6002 50.8375 64.325 50.8375ZM18.675 54.9875C18.3998 54.9875 18.1359 55.0968 17.9414 55.2914C17.7468 55.4859 17.6375 55.7498 17.6375 56.025C17.6375 56.3002 17.7468 56.5641 17.9414 56.7586C18.1359 56.9532 18.3998 57.0625 18.675 57.0625C18.9502 57.0625 19.2141 56.9532 19.4086 56.7586C19.6032 56.5641 19.7125 56.3002 19.7125 56.025C19.7125 55.7498 19.6032 55.4859 19.4086 55.2914C19.2141 55.0968 18.9502 54.9875 18.675 54.9875ZM64.325 54.9875C64.0498 54.9875 63.7859 55.0968 63.5914 55.2914C63.3968 55.4859 63.2875 55.7498 63.2875 56.025C63.2875 56.3002 63.3968 56.5641 63.5914 56.7586C63.7859 56.9532 64.0498 57.0625 64.325 57.0625C64.6002 57.0625 64.8641 56.9532 65.0586 56.7586C65.2532 56.5641 65.3625 56.3002 65.3625 56.025C65.3625 55.7498 65.2532 55.4859 65.0586 55.2914C64.8641 55.0968 64.6002 54.9875 64.325 54.9875ZM18.675 59.1375C18.3998 59.1375 18.1359 59.2468 17.9414 59.4414C17.7468 59.6359 17.6375 59.8998 17.6375 60.175C17.6375 60.4502 17.7468 60.7141 17.9414 60.9086C18.1359 61.1032 18.3998 61.2125 18.675 61.2125C18.9502 61.2125 19.2141 61.1032 19.4086 60.9086C19.6032 60.7141 19.7125 60.4502 19.7125 60.175C19.7125 59.8998 19.6032 59.6359 19.4086 59.4414C19.2141 59.2468 18.9502 59.1375 18.675 59.1375ZM64.325 59.1375C64.0498 59.1375 63.7859 59.2468 63.5914 59.4414C63.3968 59.6359 63.2875 59.8998 63.2875 60.175C63.2875 60.4502 63.3968 60.7141 63.5914 60.9086C63.7859 61.1032 64.0498 61.2125 64.325 61.2125C64.6002 61.2125 64.8641 61.1032 65.0586 60.9086C65.2532 60.7141 65.3625 60.4502 65.3625 60.175C65.3625 59.8998 65.2532 59.6359 65.0586 59.4414C64.8641 59.2468 64.6002 59.1375 64.325 59.1375ZM18.675 63.2875C18.3998 63.2875 18.1359 63.3968 17.9414 63.5914C17.7468 63.7859 17.6375 64.0498 17.6375 64.325C17.6375 64.6002 17.7468 64.8641 17.9414 65.0586C18.1359 65.2532 18.3998 65.3625 18.675 65.3625C18.9502 65.3625 19.2141 65.2532 19.4086 65.0586C19.6032 64.8641 19.7125 64.6002 19.7125 64.325C19.7125 64.0498 19.6032 63.7859 19.4086 63.5914C19.2141 63.3968 18.9502 63.2875 18.675 63.2875ZM22.825 63.2875C22.5498 63.2875 22.2859 63.3968 22.0914 63.5914C21.8968 63.7859 21.7875 64.0498 21.7875 64.325C21.7875 64.6002 21.8968 64.8641 22.0914 65.0586C22.2859 65.2532 22.5498 65.3625 22.825 65.3625C23.1002 65.3625 23.3641 65.2532 23.5586 65.0586C23.7532 64.8641 23.8625 64.6002 23.8625 64.325C23.8625 64.0498 23.7532 63.7859 23.5586 63.5914C23.3641 63.3968 23.1002 63.2875 22.825 63.2875ZM26.975 63.2875C26.6998 63.2875 26.4359 63.3968 26.2414 63.5914C26.0468 63.7859 25.9375 64.0498 25.9375 64.325C25.9375 64.6002 26.0468 64.8641 26.2414 65.0586C26.4359 65.2532 26.6998 65.3625 26.975 65.3625C27.2502 65.3625 27.5141 65.2532 27.7086 65.0586C27.9032 64.8641 28.0125 64.6002 28.0125 64.325C28.0125 64.0498 27.9032 63.7859 27.7086 63.5914C27.5141 63.3968 27.2502 63.2875 26.975 63.2875ZM31.125 63.2875C30.8498 63.2875 30.5859 63.3968 30.3914 63.5914C30.1968 63.7859 30.0875 64.0498 30.0875 64.325C30.0875 64.6002 30.1968 64.8641 30.3914 65.0586C30.5859 65.2532 30.8498 65.3625 31.125 65.3625C31.4002 65.3625 31.6641 65.2532 31.8586 65.0586C32.0532 64.8641 32.1625 64.6002 32.1625 64.325C32.1625 64.0498 32.0532 63.7859 31.8586 63.5914C31.6641 63.3968 31.4002 63.2875 31.125 63.2875ZM35.275 63.2875C34.9998 63.2875 34.7359 63.3968 34.5414 63.5914C34.3468 63.7859 34.2375 64.0498 34.2375 64.325C34.2375 64.6002 34.3468 64.8641 34.5414 65.0586C34.7359 65.2532 34.9998 65.3625 35.275 65.3625C35.5502 65.3625 35.8141 65.2532 36.0086 65.0586C36.2032 64.8641 36.3125 64.6002 36.3125 64.325C36.3125 64.0498 36.2032 63.7859 36.0086 63.5914C35.8141 63.3968 35.5502 63.2875 35.275 63.2875ZM39.425 63.2875C39.1498 63.2875 38.8859 63.3968 38.6914 63.5914C38.4968 63.7859 38.3875 64.0498 38.3875 64.325C38.3875 64.6002 38.4968 64.8641 38.6914 65.0586C38.8859 65.2532 39.1498 65.3625 39.425 65.3625C39.7002 65.3625 39.9641 65.2532 40.1586 65.0586C40.3532 64.8641 40.4625 64.6002 40.4625 64.325C40.4625 64.0498 40.3532 63.7859 40.1586 63.5914C39.9641 63.3968 39.7002 63.2875 39.425 63.2875ZM43.575 63.2875C43.2998 63.2875 43.0359 63.3968 42.8414 63.5914C42.6468 63.7859 42.5375 64.0498 42.5375 64.325C42.5375 64.6002 42.6468 64.8641 42.8414 65.0586C43.0359 65.2532 43.2998 65.3625 43.575 65.3625C43.8502 65.3625 44.1141 65.2532 44.3086 65.0586C44.5032 64.8641 44.6125 64.6002 44.6125 64.325C44.6125 64.0498 44.5032 63.7859 44.3086 63.5914C44.1141 63.3968 43.8502 63.2875 43.575 63.2875ZM47.725 63.2875C47.4498 63.2875 47.1859 63.3968 46.9914 63.5914C46.7968 63.7859 46.6875 64.0498 46.6875 64.325C46.6875 64.6002 46.7968 64.8641 46.9914 65.0586C47.1859 65.2532 47.4498 65.3625 47.725 65.3625C48.0002 65.3625 48.2641 65.2532 48.4586 65.0586C48.6532 64.8641 48.7625 64.6002 48.7625 64.325C48.7625 64.0498 48.6532 63.7859 48.4586 63.5914C48.2641 63.3968 48.0002 63.2875 47.725 63.2875ZM51.875 63.2875C51.5998 63.2875 51.3359 63.3968 51.1414 63.5914C50.9468 63.7859 50.8375 64.0498 50.8375 64.325C50.8375 64.6002 50.9468 64.8641 51.1414 65.0586C51.3359 65.2532 51.5998 65.3625 51.875 65.3625C52.1502 65.3625 52.4141 65.2532 52.6086 65.0586C52.8032 64.8641 52.9125 64.6002 52.9125 64.325C52.9125 64.0498 52.8032 63.7859 52.6086 63.5914C52.4141 63.3968 52.1502 63.2875 51.875 63.2875ZM56.025 63.2875C55.7498 63.2875 55.4859 63.3968 55.2914 63.5914C55.0968 63.7859 54.9875 64.0498 54.9875 64.325C54.9875 64.6002 55.0968 64.8641 55.2914 65.0586C55.4859 65.2532 55.7498 65.3625 56.025 65.3625C56.3002 65.3625 56.5641 65.2532 56.7586 65.0586C56.9532 64.8641 57.0625 64.6002 57.0625 64.325C57.0625 64.0498 56.9532 63.7859 56.7586 63.5914C56.5641 63.3968 56.3002 63.2875 56.025 63.2875ZM60.175 63.2875C59.8998 63.2875 59.6359 63.3968 59.4414 63.5914C59.2468 63.7859 59.1375 64.0498 59.1375 64.325C59.1375 64.6002 59.2468 64.8641 59.4414 65.0586C59.6359 65.2532 59.8998 65.3625 60.175 65.3625C60.4502 65.3625 60.7141 65.2532 60.9086 65.0586C61.1032 64.8641 61.2125 64.6002 61.2125 64.325C61.2125 64.0498 61.1032 63.7859 60.9086 63.5914C60.7141 63.3968 60.4502 63.2875 60.175 63.2875ZM64.325 63.2875C64.0498 63.2875 63.7859 63.3968 63.5914 63.5914C63.3968 63.7859 63.2875 64.0498 63.2875 64.325C63.2875 64.6002 63.3968 64.8641 63.5914 65.0586C63.7859 65.2532 64.0498 65.3625 64.325 65.3625C64.6002 65.3625 64.8641 65.2532 65.0586 65.0586C65.2532 64.8641 65.3625 64.6002 65.3625 64.325C65.3625 64.0498 65.2532 63.7859 65.0586 63.5914C64.8641 63.3968 64.6002 63.2875 64.325 63.2875Z" fill="#C3CCD9"/>
</svg>
