<svg width="68" height="68" viewBox="0 0 68 68" fill="none" xmlns="http://www.w3.org/2000/svg">
<path d="M36.8333 24.0833H25.5C20.0232 24.0833 15.5833 19.6435 15.5833 14.1667C15.5833 8.68983 20.0232 4.25 25.5 4.25H36.8333V24.0833Z" fill="#E64A19"/>
<path d="M35.4167 43.9168H25.5C20.0232 43.9168 15.5833 39.477 15.5833 34.0002C15.5833 28.5233 20.0232 24.0835 25.5 24.0835H35.4167V43.9168Z" fill="#7C4DFF"/>
<path d="M25.5 63.7498C20.0232 63.7498 15.5833 59.31 15.5833 53.8332C15.5833 48.3563 20.0232 43.9165 25.5 43.9165H35.4167V53.8332C35.4167 59.31 30.9768 63.7498 25.5 63.7498Z" fill="#66BB6A"/>
<path d="M45.3333 24.0833H35.4167V4.25H45.3333C50.8102 4.25 55.25 8.68983 55.25 14.1667C55.25 19.6435 50.8102 24.0833 45.3333 24.0833Z" fill="#FF7043"/>
<path d="M45.3333 43.9168C50.8101 43.9168 55.25 39.477 55.25 34.0002C55.25 28.5233 50.8101 24.0835 45.3333 24.0835C39.8565 24.0835 35.4167 28.5233 35.4167 34.0002C35.4167 39.477 39.8565 43.9168 45.3333 43.9168Z" fill="#29B6F6"/>
</svg>
