<svg width="82" height="82" viewBox="0 0 82 82" fill="none" xmlns="http://www.w3.org/2000/svg">
<path d="M14.35 10.25C12.0977 10.25 10.25 12.0977 10.25 14.35V67.65C10.25 69.9023 12.0977 71.75 14.35 71.75H67.65C69.9023 71.75 71.75 69.9023 71.75 67.65V14.35C71.75 12.0977 69.9023 10.25 67.65 10.25H14.35ZM14.35 12.3H67.65C68.7946 12.3 69.7 13.2054 69.7 14.35V67.65C69.7 68.7946 68.7946 69.7 67.65 69.7H14.35C13.2054 69.7 12.3 68.7946 12.3 67.65V14.35C12.3 13.2054 13.2054 12.3 14.35 12.3ZM18.45 17.425C18.1782 17.425 17.9174 17.533 17.7252 17.7252C17.533 17.9174 17.425 18.1782 17.425 18.45C17.425 18.7218 17.533 18.9826 17.7252 19.1748C17.9174 19.367 18.1782 19.475 18.45 19.475C18.7218 19.475 18.9826 19.367 19.1748 19.1748C19.367 18.9826 19.475 18.7218 19.475 18.45C19.475 18.1782 19.367 17.9174 19.1748 17.7252C18.9826 17.533 18.7218 17.425 18.45 17.425ZM22.55 17.425C22.2782 17.425 22.0174 17.533 21.8252 17.7252C21.633 17.9174 21.525 18.1782 21.525 18.45C21.525 18.7218 21.633 18.9826 21.8252 19.1748C22.0174 19.367 22.2782 19.475 22.55 19.475C22.8218 19.475 23.0826 19.367 23.2748 19.1748C23.467 18.9826 23.575 18.7218 23.575 18.45C23.575 18.1782 23.467 17.9174 23.2748 17.7252C23.0826 17.533 22.8218 17.425 22.55 17.425ZM26.65 17.425C26.3782 17.425 26.1174 17.533 25.9252 17.7252C25.733 17.9174 25.625 18.1782 25.625 18.45C25.625 18.7218 25.733 18.9826 25.9252 19.1748C26.1174 19.367 26.3782 19.475 26.65 19.475C26.9218 19.475 27.1826 19.367 27.3748 19.1748C27.567 18.9826 27.675 18.7218 27.675 18.45C27.675 18.1782 27.567 17.9174 27.3748 17.7252C27.1826 17.533 26.9218 17.425 26.65 17.425ZM30.75 17.425C30.4782 17.425 30.2174 17.533 30.0252 17.7252C29.833 17.9174 29.725 18.1782 29.725 18.45C29.725 18.7218 29.833 18.9826 30.0252 19.1748C30.2174 19.367 30.4782 19.475 30.75 19.475C31.0218 19.475 31.2826 19.367 31.4748 19.1748C31.667 18.9826 31.775 18.7218 31.775 18.45C31.775 18.1782 31.667 17.9174 31.4748 17.7252C31.2826 17.533 31.0218 17.425 30.75 17.425ZM34.85 17.425C34.5782 17.425 34.3174 17.533 34.1252 17.7252C33.933 17.9174 33.825 18.1782 33.825 18.45C33.825 18.7218 33.933 18.9826 34.1252 19.1748C34.3174 19.367 34.5782 19.475 34.85 19.475C35.1218 19.475 35.3826 19.367 35.5748 19.1748C35.767 18.9826 35.875 18.7218 35.875 18.45C35.875 18.1782 35.767 17.9174 35.5748 17.7252C35.3826 17.533 35.1218 17.425 34.85 17.425ZM38.95 17.425C38.6782 17.425 38.4174 17.533 38.2252 17.7252C38.033 17.9174 37.925 18.1782 37.925 18.45C37.925 18.7218 38.033 18.9826 38.2252 19.1748C38.4174 19.367 38.6782 19.475 38.95 19.475C39.2218 19.475 39.4826 19.367 39.6748 19.1748C39.867 18.9826 39.975 18.7218 39.975 18.45C39.975 18.1782 39.867 17.9174 39.6748 17.7252C39.4826 17.533 39.2218 17.425 38.95 17.425ZM43.05 17.425C42.7782 17.425 42.5174 17.533 42.3252 17.7252C42.133 17.9174 42.025 18.1782 42.025 18.45C42.025 18.7218 42.133 18.9826 42.3252 19.1748C42.5174 19.367 42.7782 19.475 43.05 19.475C43.3218 19.475 43.5826 19.367 43.7748 19.1748C43.967 18.9826 44.075 18.7218 44.075 18.45C44.075 18.1782 43.967 17.9174 43.7748 17.7252C43.5826 17.533 43.3218 17.425 43.05 17.425ZM47.15 17.425C46.8782 17.425 46.6174 17.533 46.4252 17.7252C46.233 17.9174 46.125 18.1782 46.125 18.45C46.125 18.7218 46.233 18.9826 46.4252 19.1748C46.6174 19.367 46.8782 19.475 47.15 19.475C47.4218 19.475 47.6826 19.367 47.8748 19.1748C48.067 18.9826 48.175 18.7218 48.175 18.45C48.175 18.1782 48.067 17.9174 47.8748 17.7252C47.6826 17.533 47.4218 17.425 47.15 17.425ZM51.25 17.425C50.9782 17.425 50.7174 17.533 50.5252 17.7252C50.333 17.9174 50.225 18.1782 50.225 18.45C50.225 18.7218 50.333 18.9826 50.5252 19.1748C50.7174 19.367 50.9782 19.475 51.25 19.475C51.5218 19.475 51.7826 19.367 51.9748 19.1748C52.167 18.9826 52.275 18.7218 52.275 18.45C52.275 18.1782 52.167 17.9174 51.9748 17.7252C51.7826 17.533 51.5218 17.425 51.25 17.425ZM55.35 17.425C55.0782 17.425 54.8174 17.533 54.6252 17.7252C54.433 17.9174 54.325 18.1782 54.325 18.45C54.325 18.7218 54.433 18.9826 54.6252 19.1748C54.8174 19.367 55.0782 19.475 55.35 19.475C55.6218 19.475 55.8826 19.367 56.0748 19.1748C56.267 18.9826 56.375 18.7218 56.375 18.45C56.375 18.1782 56.267 17.9174 56.0748 17.7252C55.8826 17.533 55.6218 17.425 55.35 17.425ZM59.45 17.425C59.1782 17.425 58.9174 17.533 58.7252 17.7252C58.533 17.9174 58.425 18.1782 58.425 18.45C58.425 18.7218 58.533 18.9826 58.7252 19.1748C58.9174 19.367 59.1782 19.475 59.45 19.475C59.7218 19.475 59.9826 19.367 60.1748 19.1748C60.367 18.9826 60.475 18.7218 60.475 18.45C60.475 18.1782 60.367 17.9174 60.1748 17.7252C59.9826 17.533 59.7218 17.425 59.45 17.425ZM63.55 17.425C63.2782 17.425 63.0174 17.533 62.8252 17.7252C62.633 17.9174 62.525 18.1782 62.525 18.45C62.525 18.7218 62.633 18.9826 62.8252 19.1748C63.0174 19.367 63.2782 19.475 63.55 19.475C63.8218 19.475 64.0826 19.367 64.2748 19.1748C64.467 18.9826 64.575 18.7218 64.575 18.45C64.575 18.1782 64.467 17.9174 64.2748 17.7252C64.0826 17.533 63.8218 17.425 63.55 17.425ZM18.45 21.525C18.1782 21.525 17.9174 21.633 17.7252 21.8252C17.533 22.0174 17.425 22.2782 17.425 22.55C17.425 22.8218 17.533 23.0826 17.7252 23.2748C17.9174 23.467 18.1782 23.575 18.45 23.575C18.7218 23.575 18.9826 23.467 19.1748 23.2748C19.367 23.0826 19.475 22.8218 19.475 22.55C19.475 22.2782 19.367 22.0174 19.1748 21.8252C18.9826 21.633 18.7218 21.525 18.45 21.525ZM63.55 21.525C63.2782 21.525 63.0174 21.633 62.8252 21.8252C62.633 22.0174 62.525 22.2782 62.525 22.55C62.525 22.8218 62.633 23.0826 62.8252 23.2748C63.0174 23.467 63.2782 23.575 63.55 23.575C63.8218 23.575 64.0826 23.467 64.2748 23.2748C64.467 23.0826 64.575 22.8218 64.575 22.55C64.575 22.2782 64.467 22.0174 64.2748 21.8252C64.0826 21.633 63.8218 21.525 63.55 21.525ZM18.45 25.625C18.1782 25.625 17.9174 25.733 17.7252 25.9252C17.533 26.1174 17.425 26.3782 17.425 26.65C17.425 26.9218 17.533 27.1826 17.7252 27.3748C17.9174 27.567 18.1782 27.675 18.45 27.675C18.7218 27.675 18.9826 27.567 19.1748 27.3748C19.367 27.1826 19.475 26.9218 19.475 26.65C19.475 26.3782 19.367 26.1174 19.1748 25.9252C18.9826 25.733 18.7218 25.625 18.45 25.625ZM63.55 25.625C63.2782 25.625 63.0174 25.733 62.8252 25.9252C62.633 26.1174 62.525 26.3782 62.525 26.65C62.525 26.9218 62.633 27.1826 62.8252 27.3748C63.0174 27.567 63.2782 27.675 63.55 27.675C63.8218 27.675 64.0826 27.567 64.2748 27.3748C64.467 27.1826 64.575 26.9218 64.575 26.65C64.575 26.3782 64.467 26.1174 64.2748 25.9252C64.0826 25.733 63.8218 25.625 63.55 25.625ZM18.45 29.725C18.1782 29.725 17.9174 29.833 17.7252 30.0252C17.533 30.2174 17.425 30.4782 17.425 30.75C17.425 31.0218 17.533 31.2826 17.7252 31.4748C17.9174 31.667 18.1782 31.775 18.45 31.775C18.7218 31.775 18.9826 31.667 19.1748 31.4748C19.367 31.2826 19.475 31.0218 19.475 30.75C19.475 30.4782 19.367 30.2174 19.1748 30.0252C18.9826 29.833 18.7218 29.725 18.45 29.725ZM63.55 29.725C63.2782 29.725 63.0174 29.833 62.8252 30.0252C62.633 30.2174 62.525 30.4782 62.525 30.75C62.525 31.0218 62.633 31.2826 62.8252 31.4748C63.0174 31.667 63.2782 31.775 63.55 31.775C63.8218 31.775 64.0826 31.667 64.2748 31.4748C64.467 31.2826 64.575 31.0218 64.575 30.75C64.575 30.4782 64.467 30.2174 64.2748 30.0252C64.0826 29.833 63.8218 29.725 63.55 29.725ZM18.45 33.825C18.1782 33.825 17.9174 33.933 17.7252 34.1252C17.533 34.3174 17.425 34.5782 17.425 34.85C17.425 35.1218 17.533 35.3826 17.7252 35.5748C17.9174 35.767 18.1782 35.875 18.45 35.875C18.7218 35.875 18.9826 35.767 19.1748 35.5748C19.367 35.3826 19.475 35.1218 19.475 34.85C19.475 34.5782 19.367 34.3174 19.1748 34.1252C18.9826 33.933 18.7218 33.825 18.45 33.825ZM63.55 33.825C63.2782 33.825 63.0174 33.933 62.8252 34.1252C62.633 34.3174 62.525 34.5782 62.525 34.85C62.525 35.1218 62.633 35.3826 62.8252 35.5748C63.0174 35.767 63.2782 35.875 63.55 35.875C63.8218 35.875 64.0826 35.767 64.2748 35.5748C64.467 35.3826 64.575 35.1218 64.575 34.85C64.575 34.5782 64.467 34.3174 64.2748 34.1252C64.0826 33.933 63.8218 33.825 63.55 33.825ZM24.6 35.875V45.1H26.65V42.025H29.725V45.1H31.775V35.875H29.725V39.975H26.65V35.875H24.6ZM33.3105 35.875V37.925H35.875V45.1H37.925V37.925H40.4535V35.875H33.3105ZM42.025 35.875V45.1H44.075V39.3023L45.9949 44.075H47.2801L49.2 39.3023V45.1H51.25V35.875H48.8457L46.6916 41.3263H46.5774L44.4293 35.875H42.025ZM53.3 35.875V45.1H58.425V43.05H55.35V35.875H53.3ZM18.45 37.925C18.1782 37.925 17.9174 38.033 17.7252 38.2252C17.533 38.4174 17.425 38.6782 17.425 38.95C17.425 39.2218 17.533 39.4826 17.7252 39.6748C17.9174 39.867 18.1782 39.975 18.45 39.975C18.7218 39.975 18.9826 39.867 19.1748 39.6748C19.367 39.4826 19.475 39.2218 19.475 38.95C19.475 38.6782 19.367 38.4174 19.1748 38.2252C18.9826 38.033 18.7218 37.925 18.45 37.925ZM63.55 37.925C63.2782 37.925 63.0174 38.033 62.8252 38.2252C62.633 38.4174 62.525 38.6782 62.525 38.95C62.525 39.2218 62.633 39.4826 62.8252 39.6748C63.0174 39.867 63.2782 39.975 63.55 39.975C63.8218 39.975 64.0826 39.867 64.2748 39.6748C64.467 39.4826 64.575 39.2218 64.575 38.95C64.575 38.6782 64.467 38.4174 64.2748 38.2252C64.0826 38.033 63.8218 37.925 63.55 37.925ZM18.45 42.025C18.1782 42.025 17.9174 42.133 17.7252 42.3252C17.533 42.5174 17.425 42.7782 17.425 43.05C17.425 43.3218 17.533 43.5826 17.7252 43.7748C17.9174 43.967 18.1782 44.075 18.45 44.075C18.7218 44.075 18.9826 43.967 19.1748 43.7748C19.367 43.5826 19.475 43.3218 19.475 43.05C19.475 42.7782 19.367 42.5174 19.1748 42.3252C18.9826 42.133 18.7218 42.025 18.45 42.025ZM63.55 42.025C63.2782 42.025 63.0174 42.133 62.8252 42.3252C62.633 42.5174 62.525 42.7782 62.525 43.05C62.525 43.3218 62.633 43.5826 62.8252 43.7748C63.0174 43.967 63.2782 44.075 63.55 44.075C63.8218 44.075 64.0826 43.967 64.2748 43.7748C64.467 43.5826 64.575 43.3218 64.575 43.05C64.575 42.7782 64.467 42.5174 64.2748 42.3252C64.0826 42.133 63.8218 42.025 63.55 42.025ZM18.45 46.125C18.1782 46.125 17.9174 46.233 17.7252 46.4252C17.533 46.6174 17.425 46.8782 17.425 47.15C17.425 47.4218 17.533 47.6826 17.7252 47.8748C17.9174 48.067 18.1782 48.175 18.45 48.175C18.7218 48.175 18.9826 48.067 19.1748 47.8748C19.367 47.6826 19.475 47.4218 19.475 47.15C19.475 46.8782 19.367 46.6174 19.1748 46.4252C18.9826 46.233 18.7218 46.125 18.45 46.125ZM63.55 46.125C63.2782 46.125 63.0174 46.233 62.8252 46.4252C62.633 46.6174 62.525 46.8782 62.525 47.15C62.525 47.4218 62.633 47.6826 62.8252 47.8748C63.0174 48.067 63.2782 48.175 63.55 48.175C63.8218 48.175 64.0826 48.067 64.2748 47.8748C64.467 47.6826 64.575 47.4218 64.575 47.15C64.575 46.8782 64.467 46.6174 64.2748 46.4252C64.0826 46.233 63.8218 46.125 63.55 46.125ZM18.45 50.225C18.1782 50.225 17.9174 50.333 17.7252 50.5252C17.533 50.7174 17.425 50.9782 17.425 51.25C17.425 51.5218 17.533 51.7826 17.7252 51.9748C17.9174 52.167 18.1782 52.275 18.45 52.275C18.7218 52.275 18.9826 52.167 19.1748 51.9748C19.367 51.7826 19.475 51.5218 19.475 51.25C19.475 50.9782 19.367 50.7174 19.1748 50.5252C18.9826 50.333 18.7218 50.225 18.45 50.225ZM63.55 50.225C63.2782 50.225 63.0174 50.333 62.8252 50.5252C62.633 50.7174 62.525 50.9782 62.525 51.25C62.525 51.5218 62.633 51.7826 62.8252 51.9748C63.0174 52.167 63.2782 52.275 63.55 52.275C63.8218 52.275 64.0826 52.167 64.2748 51.9748C64.467 51.7826 64.575 51.5218 64.575 51.25C64.575 50.9782 64.467 50.7174 64.2748 50.5252C64.0826 50.333 63.8218 50.225 63.55 50.225ZM18.45 54.325C18.1782 54.325 17.9174 54.433 17.7252 54.6252C17.533 54.8174 17.425 55.0782 17.425 55.35C17.425 55.6218 17.533 55.8826 17.7252 56.0748C17.9174 56.267 18.1782 56.375 18.45 56.375C18.7218 56.375 18.9826 56.267 19.1748 56.0748C19.367 55.8826 19.475 55.6218 19.475 55.35C19.475 55.0782 19.367 54.8174 19.1748 54.6252C18.9826 54.433 18.7218 54.325 18.45 54.325ZM63.55 54.325C63.2782 54.325 63.0174 54.433 62.8252 54.6252C62.633 54.8174 62.525 55.0782 62.525 55.35C62.525 55.6218 62.633 55.8826 62.8252 56.0748C63.0174 56.267 63.2782 56.375 63.55 56.375C63.8218 56.375 64.0826 56.267 64.2748 56.0748C64.467 55.8826 64.575 55.6218 64.575 55.35C64.575 55.0782 64.467 54.8174 64.2748 54.6252C64.0826 54.433 63.8218 54.325 63.55 54.325ZM18.45 58.425C18.1782 58.425 17.9174 58.533 17.7252 58.7252C17.533 58.9174 17.425 59.1782 17.425 59.45C17.425 59.7218 17.533 59.9826 17.7252 60.1748C17.9174 60.367 18.1782 60.475 18.45 60.475C18.7218 60.475 18.9826 60.367 19.1748 60.1748C19.367 59.9826 19.475 59.7218 19.475 59.45C19.475 59.1782 19.367 58.9174 19.1748 58.7252C18.9826 58.533 18.7218 58.425 18.45 58.425ZM63.55 58.425C63.2782 58.425 63.0174 58.533 62.8252 58.7252C62.633 58.9174 62.525 59.1782 62.525 59.45C62.525 59.7218 62.633 59.9826 62.8252 60.1748C63.0174 60.367 63.2782 60.475 63.55 60.475C63.8218 60.475 64.0826 60.367 64.2748 60.1748C64.467 59.9826 64.575 59.7218 64.575 59.45C64.575 59.1782 64.467 58.9174 64.2748 58.7252C64.0826 58.533 63.8218 58.425 63.55 58.425ZM18.45 62.525C18.1782 62.525 17.9174 62.633 17.7252 62.8252C17.533 63.0174 17.425 63.2782 17.425 63.55C17.425 63.8218 17.533 64.0826 17.7252 64.2748C17.9174 64.467 18.1782 64.575 18.45 64.575C18.7218 64.575 18.9826 64.467 19.1748 64.2748C19.367 64.0826 19.475 63.8218 19.475 63.55C19.475 63.2782 19.367 63.0174 19.1748 62.8252C18.9826 62.633 18.7218 62.525 18.45 62.525ZM22.55 62.525C22.2782 62.525 22.0174 62.633 21.8252 62.8252C21.633 63.0174 21.525 63.2782 21.525 63.55C21.525 63.8218 21.633 64.0826 21.8252 64.2748C22.0174 64.467 22.2782 64.575 22.55 64.575C22.8218 64.575 23.0826 64.467 23.2748 64.2748C23.467 64.0826 23.575 63.8218 23.575 63.55C23.575 63.2782 23.467 63.0174 23.2748 62.8252C23.0826 62.633 22.8218 62.525 22.55 62.525ZM26.65 62.525C26.3782 62.525 26.1174 62.633 25.9252 62.8252C25.733 63.0174 25.625 63.2782 25.625 63.55C25.625 63.8218 25.733 64.0826 25.9252 64.2748C26.1174 64.467 26.3782 64.575 26.65 64.575C26.9218 64.575 27.1826 64.467 27.3748 64.2748C27.567 64.0826 27.675 63.8218 27.675 63.55C27.675 63.2782 27.567 63.0174 27.3748 62.8252C27.1826 62.633 26.9218 62.525 26.65 62.525ZM30.75 62.525C30.4782 62.525 30.2174 62.633 30.0252 62.8252C29.833 63.0174 29.725 63.2782 29.725 63.55C29.725 63.8218 29.833 64.0826 30.0252 64.2748C30.2174 64.467 30.4782 64.575 30.75 64.575C31.0218 64.575 31.2826 64.467 31.4748 64.2748C31.667 64.0826 31.775 63.8218 31.775 63.55C31.775 63.2782 31.667 63.0174 31.4748 62.8252C31.2826 62.633 31.0218 62.525 30.75 62.525ZM34.85 62.525C34.5782 62.525 34.3174 62.633 34.1252 62.8252C33.933 63.0174 33.825 63.2782 33.825 63.55C33.825 63.8218 33.933 64.0826 34.1252 64.2748C34.3174 64.467 34.5782 64.575 34.85 64.575C35.1218 64.575 35.3826 64.467 35.5748 64.2748C35.767 64.0826 35.875 63.8218 35.875 63.55C35.875 63.2782 35.767 63.0174 35.5748 62.8252C35.3826 62.633 35.1218 62.525 34.85 62.525ZM38.95 62.525C38.6782 62.525 38.4174 62.633 38.2252 62.8252C38.033 63.0174 37.925 63.2782 37.925 63.55C37.925 63.8218 38.033 64.0826 38.2252 64.2748C38.4174 64.467 38.6782 64.575 38.95 64.575C39.2218 64.575 39.4826 64.467 39.6748 64.2748C39.867 64.0826 39.975 63.8218 39.975 63.55C39.975 63.2782 39.867 63.0174 39.6748 62.8252C39.4826 62.633 39.2218 62.525 38.95 62.525ZM43.05 62.525C42.7782 62.525 42.5174 62.633 42.3252 62.8252C42.133 63.0174 42.025 63.2782 42.025 63.55C42.025 63.8218 42.133 64.0826 42.3252 64.2748C42.5174 64.467 42.7782 64.575 43.05 64.575C43.3218 64.575 43.5826 64.467 43.7748 64.2748C43.967 64.0826 44.075 63.8218 44.075 63.55C44.075 63.2782 43.967 63.0174 43.7748 62.8252C43.5826 62.633 43.3218 62.525 43.05 62.525ZM47.15 62.525C46.8782 62.525 46.6174 62.633 46.4252 62.8252C46.233 63.0174 46.125 63.2782 46.125 63.55C46.125 63.8218 46.233 64.0826 46.4252 64.2748C46.6174 64.467 46.8782 64.575 47.15 64.575C47.4218 64.575 47.6826 64.467 47.8748 64.2748C48.067 64.0826 48.175 63.8218 48.175 63.55C48.175 63.2782 48.067 63.0174 47.8748 62.8252C47.6826 62.633 47.4218 62.525 47.15 62.525ZM51.25 62.525C50.9782 62.525 50.7174 62.633 50.5252 62.8252C50.333 63.0174 50.225 63.2782 50.225 63.55C50.225 63.8218 50.333 64.0826 50.5252 64.2748C50.7174 64.467 50.9782 64.575 51.25 64.575C51.5218 64.575 51.7826 64.467 51.9748 64.2748C52.167 64.0826 52.275 63.8218 52.275 63.55C52.275 63.2782 52.167 63.0174 51.9748 62.8252C51.7826 62.633 51.5218 62.525 51.25 62.525ZM55.35 62.525C55.0782 62.525 54.8174 62.633 54.6252 62.8252C54.433 63.0174 54.325 63.2782 54.325 63.55C54.325 63.8218 54.433 64.0826 54.6252 64.2748C54.8174 64.467 55.0782 64.575 55.35 64.575C55.6218 64.575 55.8826 64.467 56.0748 64.2748C56.267 64.0826 56.375 63.8218 56.375 63.55C56.375 63.2782 56.267 63.0174 56.0748 62.8252C55.8826 62.633 55.6218 62.525 55.35 62.525ZM59.45 62.525C59.1782 62.525 58.9174 62.633 58.7252 62.8252C58.533 63.0174 58.425 63.2782 58.425 63.55C58.425 63.8218 58.533 64.0826 58.7252 64.2748C58.9174 64.467 59.1782 64.575 59.45 64.575C59.7218 64.575 59.9826 64.467 60.1748 64.2748C60.367 64.0826 60.475 63.8218 60.475 63.55C60.475 63.2782 60.367 63.0174 60.1748 62.8252C59.9826 62.633 59.7218 62.525 59.45 62.525ZM63.55 62.525C63.2782 62.525 63.0174 62.633 62.8252 62.8252C62.633 63.0174 62.525 63.2782 62.525 63.55C62.525 63.8218 62.633 64.0826 62.8252 64.2748C63.0174 64.467 63.2782 64.575 63.55 64.575C63.8218 64.575 64.0826 64.467 64.2748 64.2748C64.467 64.0826 64.575 63.8218 64.575 63.55C64.575 63.2782 64.467 63.0174 64.2748 62.8252C64.0826 62.633 63.8218 62.525 63.55 62.525Z" fill="#C3CCD9"/>
</svg>
