<svg width="75" height="75" viewBox="0 0 75 75" fill="none" xmlns="http://www.w3.org/2000/svg">
<path d="M14.7377 7.03125C10.5042 7.03125 7.03125 10.5042 7.03125 14.7377V60.2623C7.03125 64.4958 10.5042 67.9688 14.7377 67.9688H60.2623C64.4956 67.9688 67.9688 64.4969 67.9688 60.2646V14.7377C67.9688 10.5044 64.4956 7.03125 60.2623 7.03125H14.7377ZM14.7377 9.375H60.2623C63.2173 9.375 65.625 11.7827 65.625 14.7377V60.2646C65.625 63.2182 63.2173 65.625 60.2623 65.625H14.7377C11.7829 65.625 9.375 63.2171 9.375 60.2623V14.7377C9.375 11.7829 11.7829 9.375 14.7377 9.375ZM14.0625 14.0625C13.4156 14.0625 12.8906 14.5875 12.8906 15.2344V17.5781C12.8906 18.225 13.4156 18.75 14.0625 18.75C14.7094 18.75 15.2344 18.225 15.2344 17.5781V15.2344C15.2344 14.5875 14.7094 14.0625 14.0625 14.0625ZM19.9219 14.0625C19.275 14.0625 18.75 14.5875 18.75 15.2344V17.5781C18.75 18.225 19.275 18.75 19.9219 18.75C20.5688 18.75 21.0938 18.225 21.0938 17.5781V15.2344C21.0938 14.5875 20.5688 14.0625 19.9219 14.0625ZM25.7812 14.0625C25.1344 14.0625 24.6094 14.5875 24.6094 15.2344V17.5781C24.6094 18.225 25.1344 18.75 25.7812 18.75C26.4281 18.75 26.9531 18.225 26.9531 17.5781V15.2344C26.9531 14.5875 26.4281 14.0625 25.7812 14.0625ZM31.6406 14.0625C30.9937 14.0625 30.4688 14.5875 30.4688 15.2344V17.5781C30.4688 18.225 30.9937 18.75 31.6406 18.75C32.2875 18.75 32.8125 18.225 32.8125 17.5781V15.2344C32.8125 14.5875 32.2875 14.0625 31.6406 14.0625ZM37.5 14.0625C36.8531 14.0625 36.3281 14.5875 36.3281 15.2344V17.5781C36.3281 18.225 36.8531 18.75 37.5 18.75C38.1469 18.75 38.6719 18.225 38.6719 17.5781V15.2344C38.6719 14.5875 38.1469 14.0625 37.5 14.0625ZM43.3594 14.0625C42.7125 14.0625 42.1875 14.5875 42.1875 15.2344V17.5781C42.1875 18.225 42.7125 18.75 43.3594 18.75C44.0062 18.75 44.5312 18.225 44.5312 17.5781V15.2344C44.5312 14.5875 44.0062 14.0625 43.3594 14.0625ZM49.2188 14.0625C48.5719 14.0625 48.0469 14.5875 48.0469 15.2344V17.5781C48.0469 18.225 48.5719 18.75 49.2188 18.75C49.8656 18.75 50.3906 18.225 50.3906 17.5781V15.2344C50.3906 14.5875 49.8656 14.0625 49.2188 14.0625ZM55.0781 14.0625C54.4313 14.0625 53.9062 14.5875 53.9062 15.2344V17.5781C53.9062 18.225 54.4313 18.75 55.0781 18.75C55.725 18.75 56.25 18.225 56.25 17.5781V15.2344C56.25 14.5875 55.725 14.0625 55.0781 14.0625ZM60.9375 14.0625C60.2906 14.0625 59.7656 14.5875 59.7656 15.2344V17.5781C59.7656 18.225 60.2906 18.75 60.9375 18.75C61.5844 18.75 62.1094 18.225 62.1094 17.5781V15.2344C62.1094 14.5875 61.5844 14.0625 60.9375 14.0625ZM34.3735 35.2936C34.0627 35.2936 33.7646 35.4171 33.5449 35.6368C33.3251 35.8566 33.2016 36.1547 33.2016 36.4655V53.437C33.2016 54.5899 32.9727 55.0711 32.8079 55.2452C32.6432 55.4193 32.3578 55.5382 31.6406 55.5382C30.3075 55.5382 29.4563 54.7929 28.7521 53.5606C28.6749 53.4253 28.5715 53.3068 28.4479 53.2119C28.3243 53.117 28.1831 53.0477 28.0324 53.0081C27.8817 52.9684 27.7247 52.9592 27.5704 52.981C27.4161 53.0028 27.2678 53.0551 27.1339 53.1349L22.8355 55.7053C22.5852 55.8552 22.3998 56.0931 22.3155 56.3724C22.2313 56.6518 22.2543 56.9526 22.3801 57.2159C23.8053 60.1952 27.2171 63.2812 31.9611 63.2812C34.5052 63.2812 36.7987 62.6049 38.4544 61.0657C40.1102 59.5264 41.0156 57.1884 41.0156 54.2587V36.4655C41.0156 36.1547 40.8921 35.8566 40.6724 35.6368C40.4526 35.4171 40.1545 35.2936 39.8438 35.2936H34.3735ZM53.4691 35.2936C48.4617 35.2936 44.9226 38.8257 44.9226 43.2701C44.9226 45.5911 45.6357 47.4746 46.8704 48.896C48.1051 50.3174 49.7811 51.2774 51.6747 52.1027L52.9312 52.6543C54.0568 53.1578 54.83 53.5603 55.1994 53.8879C55.5704 54.2168 55.6572 54.3654 55.6572 54.998C55.6572 55.4448 55.5366 55.6966 55.2658 55.925C54.995 56.1534 54.4909 56.3667 53.6476 56.3667C52.6776 56.3667 52.103 56.0819 51.5327 55.5748C50.9625 55.0676 50.4474 54.2917 49.9191 53.4096C49.8371 53.2725 49.7279 53.1536 49.5982 53.0603C49.4685 52.9669 49.3211 52.9011 49.1651 52.8668C49.009 52.8325 48.8476 52.8304 48.6907 52.8608C48.5338 52.8912 48.3848 52.9533 48.2529 53.0434L44.2932 55.7419C44.0599 55.9013 43.892 56.1396 43.8205 56.413C43.7491 56.6864 43.7787 56.9764 43.9041 57.2296C45.5182 60.4924 48.6868 63.2812 53.7666 63.2812C56.3654 63.2812 58.7221 62.5957 60.4706 61.1687C62.219 59.7416 63.2803 57.5511 63.279 54.9339C63.2785 52.5648 62.5554 50.6459 61.2305 49.1913C59.9055 47.7366 58.0827 46.7353 55.8838 45.7718H55.8815L54.6272 45.2225L54.6249 45.2202C53.5759 44.7552 52.8984 44.3765 52.5925 44.0918C52.2862 43.8067 52.2285 43.7036 52.2285 43.1671C52.2285 42.502 52.4984 42.1303 53.4668 42.1303C54.0222 42.1303 54.3386 42.228 54.6501 42.4393C54.9616 42.6505 55.3027 43.0329 55.6801 43.7256C55.7576 43.8676 55.8637 43.9921 55.9917 44.0911C56.1197 44.1901 56.2668 44.2615 56.4238 44.3008C56.5808 44.3402 56.7442 44.3466 56.9037 44.3197C57.0633 44.2928 57.2156 44.2331 57.3509 44.1444L61.2717 41.5695C61.5193 41.4073 61.6964 41.1573 61.7673 40.8699C61.8382 40.5824 61.7977 40.2788 61.6539 40.02C59.8336 36.7435 56.9486 35.2936 53.4691 35.2936ZM35.5453 37.6373H38.6719V54.2587C38.6719 56.7243 37.9754 58.3113 36.8591 59.3491C35.7428 60.3868 34.095 60.9375 31.9611 60.9375C28.7264 60.9375 26.4802 58.9862 25.1976 57.0236L27.5253 55.632C28.5154 56.8551 29.8185 57.8819 31.6406 57.8819C32.659 57.8819 33.7402 57.6683 34.5085 56.8565C35.2769 56.0448 35.5453 54.8893 35.5453 53.437V37.6373ZM53.4691 37.6373C55.9645 37.6373 57.5135 38.496 58.8638 40.3473L56.916 41.629C56.6085 41.2423 56.3565 40.7646 55.9639 40.4984C55.2322 40.0021 54.3587 39.7865 53.4668 39.7865C51.4844 39.7865 49.8848 41.3338 49.8848 43.1671C49.8848 44.1763 50.2957 45.1554 50.9972 45.8084C51.6987 46.4614 52.5701 46.8732 53.6797 47.3648C53.6804 47.3656 53.6812 47.3663 53.6819 47.3671L54.9408 47.9187C57.0207 48.8299 58.5456 49.7252 59.4978 50.7706C60.45 51.816 60.9352 53.0046 60.9352 54.9362C60.9362 56.9527 60.217 58.3497 58.9897 59.3513C57.7624 60.353 55.9503 60.9375 53.7666 60.9375C49.9779 60.9375 47.9069 59.2983 46.5408 57.0465L48.6603 55.6023C49.0579 56.1973 49.3999 56.8131 49.9763 57.3257C50.8832 58.1323 52.1345 58.7105 53.6476 58.7105C54.8903 58.7105 55.9779 58.3905 56.7764 57.7171C57.5749 57.0438 58.0009 56.0255 58.0009 54.998C58.0009 53.8646 57.5228 52.8168 56.7535 52.1347C55.9842 51.4526 55.0427 51.0299 53.8788 50.5096C53.8765 50.5089 53.8742 50.5081 53.8719 50.5074L52.6131 49.9557C52.6123 49.955 52.6115 49.9542 52.6108 49.9535C50.8715 49.1955 49.5231 48.3723 48.642 47.3579C47.7608 46.3436 47.2664 45.1409 47.2664 43.2701C47.2664 39.9895 49.4835 37.6373 53.4691 37.6373Z" fill="#C3CCD9"/>
</svg>
