<svg width="20" height="17" viewBox="0 0 20 17" fill="none" xmlns="http://www.w3.org/2000/svg">
<path d="M18.125 8.5H15V6.07143C15 4.73192 16.1211 3.64286 17.5 3.64286H17.8125C18.332 3.64286 18.75 3.23683 18.75 2.73214V0.910714C18.75 0.406027 18.332 0 17.8125 0H17.5C14.0469 0 11.25 2.71696 11.25 6.07143V15.1786C11.25 16.1842 12.0898 17 13.125 17H18.125C19.1602 17 20 16.1842 20 15.1786V10.3214C20 9.31585 19.1602 8.5 18.125 8.5ZM6.875 8.5H3.75V6.07143C3.75 4.73192 4.87109 3.64286 6.25 3.64286H6.5625C7.08203 3.64286 7.5 3.23683 7.5 2.73214V0.910714C7.5 0.406027 7.08203 0 6.5625 0H6.25C2.79688 0 0 2.71696 0 6.07143V15.1786C0 16.1842 0.839844 17 1.875 17H6.875C7.91016 17 8.75 16.1842 8.75 15.1786V10.3214C8.75 9.31585 7.91016 8.5 6.875 8.5Z" fill="#C3CCD9"/>
</svg>
