<svg width="145" height="30" viewBox="0 0 145 30" fill="none" xmlns="http://www.w3.org/2000/svg">
<path d="M43.6689 23.418L44.6533 18.6016H45.7563L44.2798 25H43.2163L41.999 20.3286L40.7554 25H39.6875L38.2109 18.6016H39.314L40.3071 23.4092L41.5288 18.6016H42.4604L43.6689 23.418ZM49.7244 25.0879C49.0477 25.0879 48.4984 24.8755 48.0765 24.4507C47.6575 24.0229 47.4481 23.4546 47.4481 22.7456V22.6138C47.4481 22.1392 47.5389 21.7158 47.7205 21.3438C47.9051 20.9688 48.1629 20.6772 48.494 20.4692C48.825 20.2612 49.1942 20.1572 49.6014 20.1572C50.2488 20.1572 50.7484 20.3638 51.0999 20.7769C51.4544 21.1899 51.6317 21.7744 51.6317 22.5303V22.9609H48.5247C48.557 23.3535 48.6873 23.6641 48.9158 23.8926C49.1473 24.1211 49.4373 24.2354 49.786 24.2354C50.2752 24.2354 50.6737 24.0376 50.9813 23.6421L51.557 24.1914C51.3665 24.4756 51.1116 24.6968 50.7923 24.855C50.4759 25.0103 50.1199 25.0879 49.7244 25.0879ZM49.597 21.0142C49.304 21.0142 49.0667 21.1167 48.8851 21.3218C48.7064 21.5269 48.5921 21.8125 48.5423 22.1787H50.577V22.0996C50.5535 21.7422 50.4583 21.4727 50.2913 21.291C50.1243 21.1064 49.8929 21.0142 49.597 21.0142ZM57.942 22.6709C57.942 23.4092 57.7765 23.9966 57.4454 24.4331C57.1173 24.8696 56.6647 25.0879 56.0875 25.0879C55.5309 25.0879 55.0973 24.8872 54.7868 24.4858L54.734 25H53.7672V18.25H54.8351V20.7021C55.1427 20.3389 55.5573 20.1572 56.0787 20.1572C56.6588 20.1572 57.1144 20.3726 57.4454 20.8032C57.7765 21.2339 57.942 21.8359 57.942 22.6094V22.6709ZM56.8742 22.5786C56.8742 22.063 56.7833 21.6763 56.6017 21.4185C56.4201 21.1606 56.1564 21.0317 55.8107 21.0317C55.3478 21.0317 55.0226 21.2339 54.8351 21.6382V23.5981C55.0255 24.0112 55.3537 24.2178 55.8195 24.2178C56.1535 24.2178 56.4113 24.0933 56.5929 23.8442C56.7746 23.5952 56.8683 23.2188 56.8742 22.7148V22.5786ZM68.6775 22.917C68.6131 23.5996 68.3611 24.1328 67.9217 24.5166C67.4822 24.8975 66.8977 25.0879 66.1682 25.0879C65.6585 25.0879 65.2088 24.9678 64.8191 24.7275C64.4324 24.4844 64.1336 24.1401 63.9226 23.6948C63.7117 23.2495 63.6018 22.7324 63.593 22.1436V21.5459C63.593 20.9424 63.7 20.4106 63.9138 19.9507C64.1277 19.4907 64.4339 19.1362 64.8323 18.8872C65.2337 18.6382 65.6966 18.5137 66.221 18.5137C66.927 18.5137 67.4954 18.7056 67.9261 19.0894C68.3567 19.4731 68.6072 20.0151 68.6775 20.7153H67.5701C67.5174 20.2554 67.3826 19.9243 67.1658 19.7222C66.9519 19.5171 66.637 19.4146 66.221 19.4146C65.7376 19.4146 65.3655 19.5918 65.1048 19.9463C64.847 20.2979 64.7151 20.8149 64.7093 21.4976V22.0645C64.7093 22.7559 64.8323 23.2832 65.0784 23.6465C65.3274 24.0098 65.6907 24.1914 66.1682 24.1914C66.6048 24.1914 66.9329 24.0933 67.1526 23.897C67.3723 23.7007 67.5115 23.374 67.5701 22.917H68.6775ZM73.3663 21.2207C73.2257 21.1973 73.0807 21.1855 72.9313 21.1855C72.442 21.1855 72.1124 21.373 71.9425 21.748V25H70.8746V20.2451H71.8941L71.9205 20.7769C72.1783 20.3638 72.5357 20.1572 72.9928 20.1572C73.1451 20.1572 73.2711 20.1777 73.3707 20.2188L73.3663 21.2207ZM77.352 25.0879C76.6752 25.0879 76.1259 24.8755 75.704 24.4507C75.2851 24.0229 75.0756 23.4546 75.0756 22.7456V22.6138C75.0756 22.1392 75.1664 21.7158 75.3481 21.3438C75.5326 20.9688 75.7904 20.6772 76.1215 20.4692C76.4526 20.2612 76.8217 20.1572 77.2289 20.1572C77.8764 20.1572 78.3759 20.3638 78.7275 20.7769C79.082 21.1899 79.2592 21.7744 79.2592 22.5303V22.9609H76.1523C76.1845 23.3535 76.3149 23.6641 76.5434 23.8926C76.7748 24.1211 77.0649 24.2354 77.4135 24.2354C77.9028 24.2354 78.3012 24.0376 78.6088 23.6421L79.1845 24.1914C78.9941 24.4756 78.7392 24.6968 78.4198 24.855C78.1034 25.0103 77.7475 25.0879 77.352 25.0879ZM77.2245 21.0142C76.9316 21.0142 76.6943 21.1167 76.5126 21.3218C76.3339 21.5269 76.2196 21.8125 76.1698 22.1787H78.2045V22.0996C78.1811 21.7422 78.0859 21.4727 77.9189 21.291C77.7519 21.1064 77.5204 21.0142 77.2245 21.0142ZM84.238 25C84.1912 24.9092 84.1501 24.7612 84.115 24.5562C83.7751 24.9106 83.3591 25.0879 82.8669 25.0879C82.3894 25.0879 81.9997 24.9517 81.698 24.6792C81.3962 24.4067 81.2453 24.0698 81.2453 23.6685C81.2453 23.1616 81.4328 22.7734 81.8078 22.5039C82.1858 22.2314 82.7248 22.0952 83.425 22.0952H84.0798V21.7832C84.0798 21.5371 84.011 21.3408 83.8733 21.1943C83.7356 21.0449 83.5261 20.9702 83.2449 20.9702C83.0017 20.9702 82.8025 21.0317 82.6472 21.1548C82.4919 21.2749 82.4143 21.4287 82.4143 21.6162H81.3464C81.3464 21.3555 81.4328 21.1123 81.6057 20.8867C81.7786 20.6582 82.0129 20.4795 82.3088 20.3506C82.6077 20.2217 82.9402 20.1572 83.3064 20.1572C83.863 20.1572 84.3069 20.2979 84.6379 20.5791C84.969 20.8574 85.1389 21.25 85.1477 21.7568V23.9014C85.1477 24.3291 85.2078 24.6704 85.3279 24.9253V25H84.238ZM83.0647 24.231C83.2756 24.231 83.4734 24.1797 83.6579 24.0771C83.8454 23.9746 83.9861 23.8369 84.0798 23.6641V22.7676H83.5041C83.1086 22.7676 82.8113 22.8364 82.612 22.9741C82.4128 23.1118 82.3132 23.3066 82.3132 23.5586C82.3132 23.7637 82.3806 23.9277 82.5154 24.0508C82.6531 24.1709 82.8362 24.231 83.0647 24.231ZM88.9092 19.0894V20.2451H89.7486V21.0361H88.9092V23.6904C88.9092 23.8721 88.9444 24.0039 89.0147 24.0859C89.0879 24.165 89.2169 24.2046 89.4014 24.2046C89.5245 24.2046 89.649 24.1899 89.775 24.1606V24.9868C89.5318 25.0542 89.2974 25.0879 89.0718 25.0879C88.2515 25.0879 87.8414 24.6353 87.8414 23.73V21.0361H87.0591V20.2451H87.8414V19.0894H88.9092ZM93.0092 25H91.9413V20.2451H93.0092V25ZM91.8754 19.0103C91.8754 18.8462 91.9266 18.71 92.0292 18.6016C92.1346 18.4932 92.2841 18.439 92.4774 18.439C92.6708 18.439 92.8202 18.4932 92.9257 18.6016C93.0311 18.71 93.0839 18.8462 93.0839 19.0103C93.0839 19.1714 93.0311 19.3062 92.9257 19.4146C92.8202 19.52 92.6708 19.5728 92.4774 19.5728C92.2841 19.5728 92.1346 19.52 92.0292 19.4146C91.9266 19.3062 91.8754 19.1714 91.8754 19.0103ZM95.281 22.5786C95.281 22.1128 95.3732 21.6938 95.5578 21.3218C95.7424 20.9468 96.0017 20.6597 96.3356 20.4604C96.6696 20.2583 97.0534 20.1572 97.487 20.1572C98.1286 20.1572 98.6486 20.3638 99.0471 20.7769C99.4484 21.1899 99.6652 21.7378 99.6975 22.4204L99.7019 22.6709C99.7019 23.1396 99.611 23.5586 99.4294 23.9277C99.2507 24.2969 98.9929 24.5825 98.656 24.7847C98.322 24.9868 97.9353 25.0879 97.4958 25.0879C96.8249 25.0879 96.2873 24.8652 95.883 24.4199C95.4816 23.9717 95.281 23.3755 95.281 22.6313V22.5786ZM96.3488 22.6709C96.3488 23.1602 96.4499 23.5439 96.6521 23.8223C96.8542 24.0977 97.1354 24.2354 97.4958 24.2354C97.8562 24.2354 98.1359 24.0947 98.3352 23.8135C98.5373 23.5322 98.6384 23.1206 98.6384 22.5786C98.6384 22.0981 98.5344 21.7173 98.3264 21.436C98.1213 21.1548 97.8415 21.0142 97.487 21.0142C97.1384 21.0142 96.8615 21.1533 96.6564 21.4316C96.4514 21.707 96.3488 22.1201 96.3488 22.6709ZM102.901 20.2451L102.932 20.7944C103.283 20.3696 103.745 20.1572 104.316 20.1572C105.306 20.1572 105.81 20.7241 105.828 21.8579V25H104.76V21.9194C104.76 21.6177 104.694 21.395 104.562 21.2515C104.433 21.105 104.221 21.0317 103.925 21.0317C103.494 21.0317 103.173 21.2266 102.962 21.6162V25H101.895V20.2451H102.901ZM110.89 23.708C110.89 23.5176 110.811 23.3726 110.653 23.2729C110.497 23.1733 110.238 23.0854 109.875 23.0093C109.512 22.9331 109.208 22.8364 108.965 22.7192C108.432 22.4614 108.165 22.0879 108.165 21.5986C108.165 21.1885 108.338 20.8457 108.684 20.5703C109.03 20.2949 109.469 20.1572 110.002 20.1572C110.571 20.1572 111.029 20.2979 111.378 20.5791C111.729 20.8604 111.905 21.2251 111.905 21.6733H110.837C110.837 21.4683 110.761 21.2983 110.609 21.1636C110.456 21.0259 110.254 20.957 110.002 20.957C109.768 20.957 109.576 21.0112 109.427 21.1196C109.28 21.228 109.207 21.373 109.207 21.5547C109.207 21.7188 109.276 21.8462 109.413 21.937C109.551 22.0278 109.829 22.1201 110.248 22.2139C110.667 22.3047 110.995 22.4146 111.233 22.5435C111.473 22.6694 111.65 22.8218 111.764 23.0005C111.882 23.1792 111.94 23.396 111.94 23.6509C111.94 24.0786 111.763 24.4258 111.409 24.6924C111.054 24.9561 110.59 25.0879 110.015 25.0879C109.626 25.0879 109.279 25.0176 108.974 24.877C108.669 24.7363 108.432 24.543 108.262 24.2969C108.092 24.0508 108.007 23.7856 108.007 23.5015H109.044C109.059 23.7534 109.154 23.9482 109.33 24.0859C109.506 24.2207 109.739 24.2881 110.029 24.2881C110.31 24.2881 110.524 24.2354 110.67 24.1299C110.817 24.0215 110.89 23.8809 110.89 23.708Z" fill="#51DDE8"/>
<path d="M51.3354 10.439H49.5454V14H47.9395V4.75781H51.1895C52.2559 4.75781 53.0789 4.99691 53.6587 5.4751C54.2384 5.95329 54.5283 6.64518 54.5283 7.55078C54.5283 8.16862 54.3781 8.68701 54.0776 9.10596C53.7814 9.52067 53.3667 9.84017 52.8335 10.0645L54.9092 13.9175V14H53.189L51.3354 10.439ZM49.5454 9.15039H51.1958C51.7375 9.15039 52.1606 9.01497 52.4653 8.74414C52.77 8.46908 52.9224 8.09456 52.9224 7.62061C52.9224 7.12549 52.7806 6.74251 52.4971 6.47168C52.2178 6.20085 51.7988 6.0612 51.2402 6.05273H49.5454V9.15039ZM56.9138 10.5024C56.9138 9.82959 57.0471 9.22445 57.3137 8.68701C57.5803 8.14535 57.9548 7.73063 58.4372 7.44287C58.9196 7.15088 59.474 7.00488 60.1003 7.00488C61.0271 7.00488 61.7782 7.30322 62.3537 7.8999C62.9335 8.49658 63.2466 9.28792 63.2932 10.2739L63.2995 10.6357C63.2995 11.3128 63.1683 11.918 62.906 12.4512C62.6478 12.9844 62.2754 13.397 61.7888 13.689C61.3063 13.981 60.7478 14.127 60.113 14.127C59.1439 14.127 58.3674 13.8053 57.7834 13.1621C57.2036 12.5146 56.9138 11.6535 56.9138 10.5786V10.5024ZM58.4563 10.6357C58.4563 11.3424 58.6022 11.8968 58.8942 12.2988C59.1862 12.6966 59.5925 12.8955 60.113 12.8955C60.6335 12.8955 61.0376 12.6924 61.3254 12.2861C61.6174 11.8799 61.7634 11.2853 61.7634 10.5024C61.7634 9.80843 61.6132 9.2583 61.3127 8.85205C61.0165 8.4458 60.6123 8.24268 60.1003 8.24268C59.5967 8.24268 59.1968 8.44368 58.9006 8.8457C58.6044 9.24349 58.4563 9.84017 58.4563 10.6357ZM71.9311 10.6357C71.9311 11.7021 71.692 12.5506 71.2138 13.1812C70.7398 13.8117 70.086 14.127 69.2523 14.127C68.4483 14.127 67.822 13.8371 67.3734 13.2573L67.2973 14H65.9008V4.25H67.4433V7.79199C67.8876 7.26725 68.4864 7.00488 69.2396 7.00488C70.0775 7.00488 70.7356 7.31592 71.2138 7.93799C71.692 8.56006 71.9311 9.42969 71.9311 10.5469V10.6357ZM70.3886 10.5024C70.3886 9.75765 70.2574 9.19906 69.995 8.82666C69.7327 8.45426 69.3518 8.26807 68.8524 8.26807C68.1838 8.26807 67.7141 8.56006 67.4433 9.14404V11.9751C67.7183 12.5718 68.1923 12.8701 68.8651 12.8701C69.3476 12.8701 69.72 12.6903 69.9823 12.3306C70.2447 11.9709 70.3801 11.4271 70.3886 10.6992V10.5024ZM77.5538 14.127C76.5763 14.127 75.7828 13.8201 75.1734 13.2065C74.5683 12.5887 74.2657 11.7677 74.2657 10.7437V10.5532C74.2657 9.86768 74.3969 9.25618 74.6593 8.71875C74.9259 8.17708 75.2983 7.75602 75.7765 7.45557C76.2547 7.15511 76.7879 7.00488 77.3761 7.00488C78.3113 7.00488 79.0328 7.30322 79.5406 7.8999C80.0527 8.49658 80.3087 9.34082 80.3087 10.4326V11.0547H75.8209C75.8674 11.6217 76.0558 12.0703 76.3858 12.4004C76.7201 12.7305 77.1391 12.8955 77.6427 12.8955C78.3494 12.8955 78.9249 12.6099 79.3692 12.0386L80.2008 12.832C79.9257 13.2425 79.5576 13.562 79.0963 13.7905C78.6393 14.0148 78.1251 14.127 77.5538 14.127ZM77.3697 8.24268C76.9465 8.24268 76.6038 8.39079 76.3414 8.68701C76.0833 8.98324 75.9182 9.39583 75.8463 9.9248H78.7853V9.81055C78.7514 9.29427 78.6139 8.90495 78.3727 8.64258C78.1314 8.37598 77.7971 8.24268 77.3697 8.24268ZM86.4075 8.54102C86.2044 8.50716 85.9949 8.49023 85.7791 8.49023C85.0724 8.49023 84.5963 8.76107 84.3509 9.30273V14H82.8084V7.13184H84.2811L84.3191 7.8999C84.6915 7.30322 85.2078 7.00488 85.868 7.00488C86.088 7.00488 86.27 7.03451 86.4139 7.09375L86.4075 8.54102ZM90.9321 5.4624V7.13184H92.1445V8.27441H90.9321V12.1084C90.9321 12.3708 90.9829 12.5612 91.0845 12.6797C91.1903 12.7939 91.3765 12.8511 91.6431 12.8511C91.8208 12.8511 92.0007 12.8299 92.1826 12.7876V13.981C91.8314 14.0783 91.4928 14.127 91.167 14.127C89.9821 14.127 89.3896 13.4731 89.3896 12.1655V8.27441H88.2598V7.13184H89.3896V5.4624H90.9321ZM95.1013 7.5L94.3142 7.01123C94.695 6.45687 94.8918 5.87077 94.9045 5.25293V4.25H96.2565V5.12598C96.2565 5.56185 96.1444 6.00195 95.9201 6.44629C95.7001 6.88639 95.4271 7.23763 95.1013 7.5ZM101.276 12.1338C101.276 11.8587 101.162 11.6493 100.933 11.5054C100.709 11.3615 100.335 11.2345 99.81 11.1245C99.2852 11.0145 98.8472 10.8748 98.496 10.7056C97.7258 10.3332 97.3407 9.79362 97.3407 9.08691C97.3407 8.49447 97.5904 7.99935 98.0897 7.60156C98.5891 7.20378 99.2239 7.00488 99.994 7.00488C100.815 7.00488 101.477 7.20801 101.981 7.61426C102.489 8.02051 102.743 8.54736 102.743 9.19482H101.2C101.2 8.8986 101.09 8.65316 100.87 8.4585C100.65 8.2596 100.358 8.16016 99.994 8.16016C99.6555 8.16016 99.3783 8.23844 99.1625 8.39502C98.9509 8.5516 98.8451 8.76107 98.8451 9.02344C98.8451 9.26042 98.9446 9.4445 99.1435 9.57568C99.3423 9.70687 99.7444 9.84017 100.35 9.97559C100.955 10.1068 101.429 10.2655 101.771 10.4517C102.118 10.6336 102.374 10.8537 102.539 11.1118C102.709 11.37 102.793 11.6831 102.793 12.0513C102.793 12.6691 102.537 13.1706 102.025 13.5557C101.513 13.9365 100.843 14.127 100.013 14.127C99.4503 14.127 98.9488 14.0254 98.5087 13.8223C98.0686 13.6191 97.7258 13.3398 97.4804 12.9844C97.2349 12.6289 97.1122 12.2459 97.1122 11.8354H98.6103C98.6314 12.1994 98.7689 12.4808 99.0229 12.6797C99.2768 12.8743 99.6132 12.9717 100.032 12.9717C100.438 12.9717 100.747 12.8955 100.959 12.7432C101.17 12.5866 101.276 12.3835 101.276 12.1338Z" fill="#C3CCD9"/>
<path d="M22.495 16.9531L29.8309 19.918V22.2148L20.245 17.7734V16.0625L29.8309 11.6328V13.9297L22.495 16.9531Z" fill="#C3CCD9"/>
<path d="M117.462 25.9648H115.598L122.723 7.4375H124.575L117.462 25.9648ZM134.594 16.8828L126.848 13.8477V11.6211L136.856 16.0508V17.7617L126.848 22.2031V19.9531L134.594 16.8828Z" fill="#C3CCD9"/>
</svg>
