<svg width="85" height="85" viewBox="0 0 85 85" fill="none" xmlns="http://www.w3.org/2000/svg">
<path d="M10.625 17.7083C10.625 13.7966 13.7966 10.625 17.7083 10.625H67.2917C71.2034 10.625 74.375 13.7966 74.375 17.7083V67.2917C74.375 71.2034 71.2034 74.375 67.2917 74.375H17.7083C13.7966 74.375 10.625 71.2034 10.625 67.2917V17.7083Z" fill="#03A9F4"/>
<path d="M35.4451 33.9541H31.8998V41.806H35.3937C36.3623 41.806 37.1114 41.489 37.6427 40.855C38.1739 40.2211 38.4378 39.2985 38.4378 38.0872C38.4378 36.8299 38.1668 35.8312 37.6249 35.0874C37.0831 34.3437 36.3553 33.9665 35.4451 33.9541Z" fill="#020F16"/>
<path d="M15.9375 15.9375V69.0625H69.0625V15.9375H15.9375ZM41.3755 43.8972C39.9128 45.328 37.8834 46.0417 35.2892 46.0417H31.8998V54.8958H26.8157V29.7164H35.3936C37.8834 29.7164 39.8703 30.4902 41.3507 32.0344C42.8311 33.5785 43.5731 35.5849 43.5731 38.0517C43.5731 40.5184 42.84 42.4664 41.3755 43.8972ZM57.8744 53.72C56.6189 54.7347 54.9684 55.2411 52.9284 55.2411C51.556 55.2411 50.3448 54.9738 49.2965 54.4372C48.2481 53.9006 47.4247 53.1533 46.8315 52.1971C46.2382 51.2408 45.9407 50.2084 45.9407 49.1017H50.5927C50.6175 49.9534 50.8141 50.5945 51.1895 51.0213C51.5649 51.448 52.1776 51.6605 53.0311 51.6605C54.3451 51.6605 55.0021 51.0673 55.0021 49.8791C55.0021 49.4647 54.8037 49.0804 54.4053 48.7298C54.0069 48.3792 53.125 47.9046 51.7526 47.3043C49.7356 46.4861 48.3491 45.6397 47.5929 44.7614C46.8368 43.883 46.4596 42.7957 46.4596 41.4924C46.4596 39.8544 47.051 38.5032 48.2322 37.4372C49.4133 36.3711 50.9805 35.8381 52.9267 35.8381C54.9773 35.8381 56.6206 36.3694 57.8549 37.4283C59.0892 38.4873 59.7054 39.9128 59.7054 41.6996H54.8108C54.8108 40.1784 54.1786 39.417 52.909 39.417C52.3901 39.417 51.9651 39.5781 51.6286 39.9004C51.2922 40.2227 51.1275 40.6743 51.1275 41.2498C51.1275 41.6642 51.3117 42.0307 51.6818 42.3477C52.0519 42.6647 52.9196 43.118 54.2938 43.7059C56.2895 44.4444 57.6973 45.266 58.5225 46.1709C59.3477 47.0758 59.7585 48.2499 59.7585 49.6896C59.7585 51.363 59.1299 52.7053 57.8744 53.72Z" fill="#020F16"/>
</svg>
