<svg width="79" height="79" viewBox="0 0 79 79" fill="none" xmlns="http://www.w3.org/2000/svg">
<path d="M39.5 45.0302C42.5541 45.0302 45.03 42.5543 45.03 39.5002C45.03 36.4461 42.5541 33.9702 39.5 33.9702C36.4459 33.9702 33.97 36.4461 33.97 39.5002C33.97 42.5543 36.4459 45.0302 39.5 45.0302Z" fill="#39C1D7"/>
<path d="M39.5 45.8202C36.0153 45.8202 33.18 42.9849 33.18 39.5002C33.18 36.0155 36.0153 33.1802 39.5 33.1802C42.9847 33.1802 45.82 36.0155 45.82 39.5002C45.82 42.9849 42.9847 45.8202 39.5 45.8202ZM39.5 34.7602C36.8859 34.7602 34.76 36.8861 34.76 39.5002C34.76 42.1143 36.8859 44.2402 39.5 44.2402C42.1141 44.2402 44.24 42.1143 44.24 39.5002C44.24 36.8861 42.1141 34.7602 39.5 34.7602Z" fill="#1F212B"/>
<path d="M69.915 39.5002C69.915 35.2532 64.8005 31.5773 56.8658 29.3898C58.9056 21.414 58.2775 15.1421 54.6325 13.0139C53.1946 12.1741 51.4503 12.0209 49.4485 12.5565C46.4322 13.3639 42.976 15.7244 39.5 19.1917C36.024 15.7244 32.5678 13.3646 29.5515 12.5565C27.5497 12.0201 25.8054 12.1741 24.3675 13.0139C20.7225 15.1421 20.0944 21.4132 22.1342 29.3898C14.1995 31.5773 9.085 35.2532 9.085 39.5002C9.085 43.7473 14.1995 47.4231 22.1342 49.6114C20.0944 57.5873 20.7225 63.8591 24.3675 65.9873C25.246 66.5 26.2383 66.7584 27.3348 66.7576C28.0324 66.7576 28.7726 66.6533 29.5515 66.4447C32.5678 65.6366 36.024 63.2768 39.5 59.8095C42.976 63.2768 46.4322 65.6366 49.4485 66.4447C50.2274 66.6533 50.9676 66.7576 51.6652 66.7576C52.7617 66.7576 53.754 66.5008 54.6325 65.9873C58.2775 63.8591 58.9048 57.5873 56.8658 49.6114C64.8005 47.4231 69.915 43.7473 69.915 39.5002ZM50.0615 14.8451C50.6343 14.6926 51.1651 14.6152 51.6542 14.6152C52.3336 14.6152 52.9308 14.7637 53.4372 15.06C55.8799 16.4867 56.3784 21.7118 54.559 28.8147C52.0523 28.2506 49.3173 27.8264 46.4109 27.5641C44.7053 25.1048 42.931 22.866 41.1432 20.9052C44.3174 17.7239 47.4316 15.5498 50.0615 14.8451ZM47.9965 44.4764C47.065 46.1086 46.0847 47.672 45.079 49.1682C43.2936 49.3017 41.4323 49.3752 39.5 49.3752C37.5677 49.3752 35.7064 49.3017 33.9218 49.1682C32.9161 47.672 31.9358 46.1086 31.0043 44.4764C30.0413 42.789 29.1771 41.1268 28.4029 39.501C29.1771 37.8752 30.0413 36.213 31.0043 34.5248C31.9365 32.8919 32.9161 31.3285 33.9226 29.8322C35.7072 29.6987 37.5677 29.6252 39.5 29.6252C41.4323 29.6252 43.2928 29.6987 45.0782 29.8322C46.0839 31.3285 47.0643 32.8927 47.9965 34.5248C48.9595 36.2122 49.8237 37.8744 50.5979 39.501C49.8237 41.1268 48.9595 42.789 47.9965 44.4764ZM51.8588 42.3008C52.6811 44.245 53.3606 46.1165 53.9104 47.8955C52.1131 48.2961 50.1729 48.6302 48.1007 48.8775C48.7659 47.83 49.4216 46.7587 50.0544 45.6504C50.6951 44.5294 51.2931 43.4115 51.8588 42.3008ZM39.5 56.3722C38.2076 54.9431 36.9175 53.3608 35.6574 51.6488C36.9151 51.7097 38.1949 51.7452 39.5 51.7452C40.8051 51.7452 42.0849 51.7097 43.3426 51.6488C42.0825 53.36 40.7924 54.9423 39.5 56.3722ZM30.8985 48.8775C28.8271 48.6302 26.8861 48.2961 25.0888 47.8955C25.6387 46.1165 26.3181 44.2442 27.1405 42.3008C27.7061 43.4115 28.3049 44.5294 28.9448 45.6504C29.5784 46.7595 30.2333 47.8308 30.8985 48.8775ZM27.1412 36.7005C26.3189 34.7563 25.6387 32.884 25.0896 31.1041C26.8869 30.7036 28.8279 30.3694 30.9001 30.1221C30.2341 31.1697 29.5792 32.2417 28.9464 33.3501C28.3049 34.4719 27.7069 35.5897 27.1412 36.7005ZM39.5 22.629C40.7924 24.0581 42.0825 25.6405 43.3426 27.3524C42.0849 27.2908 40.8051 27.2552 39.5 27.2552C38.1949 27.2552 36.9151 27.2908 35.6574 27.3516C36.9175 25.6405 38.2076 24.0581 39.5 22.629ZM50.0544 33.3509C49.4216 32.2417 48.7659 31.1705 48.1007 30.1229C50.1729 30.3702 52.1131 30.7044 53.9112 31.1049C53.3613 32.8848 52.6819 34.7563 51.8595 36.7012C51.2931 35.5897 50.6951 34.4719 50.0544 33.3509ZM25.5628 15.06C26.07 14.7637 26.6657 14.6152 27.3459 14.6152C27.8341 14.6152 28.3665 14.6926 28.9385 14.8451C31.5684 15.5498 34.6826 17.7231 37.8568 20.9044C36.069 22.8652 34.2947 25.1048 32.5891 27.5633C29.6827 27.8256 26.9469 28.2498 24.441 28.8139C22.6216 21.711 23.1201 16.4859 25.5628 15.06ZM11.455 39.5002C11.455 36.6594 15.7218 33.6226 22.7796 31.6784C23.5452 34.174 24.55 36.8024 25.7864 39.5002C24.55 42.1981 23.5452 44.8264 22.7796 47.322C15.7218 45.3778 11.455 42.3411 11.455 39.5002ZM28.9385 64.1553C27.5694 64.5203 26.4342 64.4484 25.5628 63.9412C23.1201 62.5145 22.6224 57.2894 24.441 50.1865C26.9469 50.7506 29.6827 51.1748 32.5883 51.4371C34.2939 53.8964 36.0682 56.1352 37.856 58.0968C34.6826 61.2774 31.5684 63.4506 28.9385 64.1553ZM53.4372 63.9412C52.5658 64.45 51.4314 64.5211 50.0615 64.1553C47.4316 63.4506 44.3174 61.2774 41.1432 58.096C42.931 56.1353 44.7053 53.8956 46.4109 51.4363C49.3173 51.174 52.0523 50.7498 54.5582 50.1858C56.3784 57.2894 55.8799 62.5145 53.4372 63.9412ZM56.2204 47.322C55.4548 44.8264 54.45 42.1981 53.2136 39.5002C54.45 36.8024 55.4548 34.1732 56.2204 31.6784C63.2782 33.6226 67.545 36.6594 67.545 39.5002C67.545 42.3411 63.2782 45.3778 56.2204 47.322Z" fill="#39C1D7"/>
<path d="M27.3301 67.1516C26.168 67.1516 25.1046 66.8744 24.1693 66.3277C20.51 64.1907 19.6007 58.2096 21.6586 49.887C13.4102 47.5415 8.69 43.7661 8.69 39.5001C8.69 35.2341 13.4103 31.4587 21.6578 29.1131C19.6007 20.7905 20.51 14.8094 24.1693 12.6725C25.7003 11.7766 27.5449 11.6091 29.6542 12.1748C32.5914 12.9616 35.99 15.1926 39.5 18.6362C43.0108 15.1926 46.4093 12.9616 49.3458 12.1748C51.4543 11.6107 53.2997 11.7782 54.8315 12.6725C58.49 14.8094 59.3993 20.7905 57.3421 29.1131C65.5897 31.4587 70.31 35.2341 70.31 39.5001C70.31 43.7661 65.5897 47.5415 57.3421 49.887C59.3993 58.2096 58.4908 64.1899 54.8315 66.3277C53.3092 67.2164 51.4456 67.3879 49.3466 66.8254C46.4085 66.0385 43.01 63.8076 39.5 60.3648C35.99 63.8076 32.5914 66.0393 29.6542 66.8254C28.8461 67.0418 28.0655 67.1516 27.3348 67.1516C27.3332 67.1516 27.3316 67.1516 27.3301 67.1516ZM27.3372 12.6393C26.3094 12.6393 25.3827 12.8779 24.5666 13.355C21.2297 15.3039 20.4634 21.2613 22.5166 29.2917C22.5695 29.5002 22.4463 29.7135 22.2385 29.7704C14.25 31.9729 9.48 35.6109 9.48 39.5001C9.48 43.3892 14.25 47.0272 22.2393 49.2297C22.4471 49.2866 22.5703 49.4999 22.5174 49.7084C20.4634 57.7388 21.2297 63.697 24.5666 65.6451C25.3803 66.1199 26.3102 66.3609 27.3301 66.3609C27.3316 66.3609 27.3332 66.3609 27.3348 66.3609C27.9968 66.3609 28.7078 66.2605 29.4496 66.0622C32.3307 65.2904 35.7104 63.0318 39.2211 59.5289C39.3752 59.3757 39.6248 59.3757 39.7789 59.5289C43.2896 63.031 46.6692 65.2896 49.5504 66.0622C51.4416 66.567 53.0935 66.4264 54.4334 65.6451C57.7703 63.6962 58.5366 57.7388 56.4826 49.7084C56.4297 49.4999 56.5529 49.2866 56.7607 49.2297C64.75 47.0272 69.52 43.3892 69.52 39.5001C69.52 35.6109 64.75 31.9729 56.7607 29.7704C56.5529 29.7135 56.4297 29.5002 56.4826 29.2917C58.5358 21.2613 57.7695 15.3032 54.4326 13.355C53.0904 12.5705 51.4472 12.4307 49.5496 12.9379C46.6685 13.7097 43.2896 15.9683 39.7781 19.4712C39.624 19.6245 39.3744 19.6245 39.2203 19.4712C35.7088 15.9683 32.33 13.7097 29.4488 12.9379C28.7054 12.7388 28.0008 12.6393 27.3372 12.6393ZM51.6549 64.7793C51.1312 64.7793 50.5655 64.6987 49.9596 64.5367C47.3281 63.8313 44.1831 61.7014 40.8635 58.3747C40.715 58.2254 40.7095 57.9853 40.8509 57.8296C42.6402 55.8673 44.4012 53.6403 46.0862 51.211C46.1526 51.1146 46.2584 51.053 46.3754 51.0428C49.2288 50.7852 51.9528 50.3673 54.4721 49.8001C54.6783 49.7535 54.8884 49.8799 54.9413 50.0876C56.7868 57.2948 56.2867 62.734 53.6363 64.2816C53.0682 64.6134 52.4054 64.7793 51.6549 64.7793ZM41.6891 58.0817C44.8104 61.1579 47.735 63.1226 50.1634 63.7736C51.4266 64.1109 52.4615 64.0525 53.2381 63.5998C55.4935 62.2821 55.8901 57.2221 54.2698 50.6541C51.8777 51.1747 49.311 51.5642 46.6305 51.813C45.0379 54.0977 43.3773 56.2038 41.6891 58.0817ZM27.3451 64.7793C26.5946 64.7793 25.9317 64.6134 25.3637 64.2824C22.7133 62.734 22.2124 57.2948 24.0587 50.0876C24.1116 49.8807 24.3217 49.7566 24.5279 49.8001C27.0464 50.3673 29.7704 50.7852 32.6246 51.0428C32.7408 51.053 32.8474 51.1146 32.9138 51.211C34.5988 53.6403 36.3597 55.8673 38.1491 57.8296C38.2913 57.9853 38.2858 58.2254 38.1365 58.3747C34.8169 61.7006 31.6719 63.8313 29.0412 64.5367C28.4345 64.6979 27.868 64.7793 27.3451 64.7793ZM24.7302 50.6541C23.1099 57.2213 23.5064 62.2821 25.7619 63.5998C26.5377 64.0517 27.5726 64.1109 28.8366 63.7736C31.265 63.1226 34.1896 61.1571 37.3109 58.0817C35.6235 56.2038 33.9629 54.0977 32.3702 51.813C29.6898 51.5642 27.1223 51.1747 24.7302 50.6541ZM39.5 56.7663C39.3886 56.7663 39.282 56.7189 39.2069 56.636C37.8931 55.1831 36.592 53.5834 35.3391 51.8817C35.249 51.7593 35.2372 51.595 35.309 51.4607C35.3809 51.3264 35.5152 51.2442 35.6764 51.2529C38.2881 51.3801 40.7119 51.3801 43.3236 51.2529C43.4816 51.2434 43.6191 51.3264 43.6909 51.4607C43.7628 51.595 43.7518 51.7585 43.6609 51.8817C42.408 53.5826 41.1069 55.1824 39.7931 56.636C39.718 56.7189 39.6114 56.7663 39.5 56.7663ZM36.4719 52.08C37.4602 53.3875 38.4762 54.6286 39.5 55.7804C40.5246 54.6286 41.5398 53.3883 42.5281 52.08C40.4646 52.159 38.5354 52.159 36.4719 52.08ZM39.5 49.7701C37.6285 49.7701 35.742 49.7005 33.8918 49.5623C33.7709 49.5536 33.6611 49.4896 33.5932 49.3885C32.5369 47.8172 31.5502 46.2301 30.6607 44.6722C29.7285 43.0385 28.8484 41.3558 28.0458 39.6699C27.9944 39.5625 27.9944 39.4377 28.0458 39.3302C28.8484 37.6444 29.7285 35.9617 30.6607 34.3279C31.5494 32.7716 32.5361 31.1845 33.594 29.6108C33.6611 29.5105 33.7717 29.4465 33.8926 29.437C37.5929 29.1605 41.4078 29.1605 45.1074 29.437C45.2283 29.4457 45.3381 29.5097 45.406 29.6108C46.4638 31.1845 47.4506 32.7716 48.3393 34.3279C49.2715 35.9617 50.1516 37.6444 50.9542 39.3302C51.0056 39.4377 51.0056 39.5625 50.9542 39.6699C50.1516 41.3558 49.2715 43.0385 48.3393 44.6722C47.4498 46.2301 46.4631 47.8172 45.4068 49.3885C45.3397 49.4888 45.2291 49.5528 45.1082 49.5623C43.258 49.7005 41.3715 49.7701 39.5 49.7701ZM34.1422 48.7881C37.6806 49.0425 41.3194 49.0425 44.857 48.7881C45.8627 47.2847 46.8028 45.7687 47.6528 44.2796C48.5439 42.7177 49.3868 41.1109 50.1595 39.5001C49.3868 37.8893 48.5439 36.2816 47.6528 34.7206C46.8035 33.233 45.8634 31.717 44.8562 30.2112C41.3178 29.9569 37.6798 29.9569 34.1414 30.2112C33.135 31.717 32.1941 33.233 31.3448 34.7206C30.4537 36.2824 29.6108 37.8893 28.8382 39.5001C29.6108 41.1109 30.4537 42.7185 31.3448 44.2796C32.1964 45.7695 33.1365 47.2847 34.1422 48.7881ZM48.1015 49.2732C47.9672 49.2732 47.84 49.2044 47.7673 49.0891C47.686 48.9595 47.6868 48.7952 47.7681 48.6664C48.5013 47.5122 49.1372 46.4615 49.7115 45.4551C50.3151 44.3981 50.9187 43.2763 51.5072 42.1221C51.5767 41.9854 51.7229 41.904 51.873 41.9072C52.0262 41.9127 52.1629 42.0059 52.223 42.1481C53.0248 44.0434 53.7192 45.9386 54.288 47.7801C54.3212 47.8851 54.3078 47.9997 54.2525 48.0945C54.1972 48.1901 54.1039 48.258 53.9965 48.2817C52.14 48.6965 50.1721 49.029 48.1481 49.2708C48.1323 49.2724 48.1165 49.2732 48.1015 49.2732ZM51.8208 43.2376C51.3516 44.1366 50.8744 45.0111 50.398 45.8461C49.9375 46.6535 49.4374 47.4885 48.8812 48.3812C50.4375 48.1743 51.9543 47.9128 53.4056 47.6015C52.9497 46.1685 52.4189 44.7062 51.8208 43.2376ZM30.8985 49.2732C30.8827 49.2732 30.8669 49.2724 30.8511 49.2708C28.8279 49.0283 26.86 48.6957 25.0035 48.2809C24.8961 48.2572 24.8036 48.1893 24.7475 48.0937C24.6922 47.9981 24.6796 47.8843 24.712 47.7793C25.2808 45.937 25.9752 44.0426 26.777 42.1474C26.8371 42.0059 26.9738 41.9119 27.127 41.9064C27.2708 41.8914 27.4233 41.9846 27.4928 42.1213C28.0813 43.2755 28.6849 44.3973 29.2885 45.4543C29.8636 46.4608 30.4995 47.5115 31.2319 48.6656C31.314 48.7944 31.314 48.9587 31.2326 49.0883C31.16 49.2044 31.0336 49.2732 30.8985 49.2732ZM25.5952 47.6015C27.0464 47.9128 28.5632 48.1743 30.1195 48.3812C29.5626 47.4885 29.0633 46.6535 28.6027 45.8461C28.1256 45.0111 27.6492 44.1358 27.1799 43.2376C26.5811 44.7062 26.0502 46.1685 25.5952 47.6015ZM56.2203 47.7169C56.0505 47.7169 55.8949 47.607 55.8427 47.4372C55.0725 44.9258 54.0668 42.3109 52.8549 39.6652C52.8068 39.5609 52.8068 39.44 52.8549 39.3357C54.0668 36.69 55.0725 34.0743 55.8435 31.5621C55.9067 31.3575 56.1232 31.243 56.3262 31.2975C63.4899 33.2717 67.94 36.4143 67.94 39.5001C67.94 42.5858 63.4891 45.7284 56.3246 47.7026C56.2899 47.7121 56.2543 47.7169 56.2203 47.7169ZM53.6481 39.5001C54.7825 41.9925 55.7361 44.4589 56.4834 46.8376C62.9764 44.9866 67.15 42.1244 67.15 39.5001C67.15 36.8757 62.9764 34.0135 56.4834 32.1625C55.7353 34.542 54.7818 37.0084 53.6481 39.5001ZM22.7796 47.7169C22.7449 47.7169 22.7101 47.7121 22.6746 47.7026C15.5109 45.7284 11.06 42.5858 11.06 39.5001C11.06 36.4143 15.5101 33.2717 22.6746 31.2975C22.8784 31.243 23.0941 31.3575 23.1573 31.5621C23.9283 34.0743 24.934 36.69 26.1458 39.3357C26.194 39.44 26.194 39.5601 26.1458 39.6652C24.9332 42.3117 23.9283 44.9266 23.1581 47.4372C23.1059 47.607 22.9495 47.7169 22.7796 47.7169ZM22.5166 32.1625C16.0236 34.0135 11.85 36.8757 11.85 39.5001C11.85 42.1244 16.0236 44.9866 22.5166 46.8376C23.2647 44.4589 24.2174 41.9933 25.3519 39.5001C24.2182 37.0084 23.2647 34.542 22.5166 32.1625ZM51.8595 37.0961C51.711 37.0961 51.5751 37.0131 51.5072 36.8804C50.9092 35.7049 50.3214 34.6139 49.7123 33.5466C49.1388 32.5417 48.5028 31.491 47.7681 30.3345C47.686 30.2057 47.686 30.0414 47.7673 29.9118C47.8487 29.7831 47.9941 29.712 48.1489 29.7301C50.1737 29.9727 52.1416 30.3053 53.9981 30.7192C54.1055 30.7429 54.1979 30.8109 54.254 30.9064C54.3093 31.002 54.322 31.1158 54.2896 31.2209C53.72 33.0663 53.0248 34.9615 52.2245 36.8544C52.1645 36.9958 52.0278 37.0898 51.8746 37.0953C51.8682 37.0961 51.8635 37.0961 51.8595 37.0961ZM50.3973 33.1548C50.8799 34.0001 51.3492 34.8596 51.8201 35.7634C52.4173 34.2971 52.9482 32.8333 53.404 31.3986C51.9528 31.0874 50.436 30.8259 48.8789 30.6189C49.4382 31.5132 49.9375 32.3482 50.3973 33.1548ZM27.1404 37.0961C27.1357 37.0961 27.131 37.0961 27.1262 37.0961C26.973 37.0906 26.8363 36.9973 26.7763 36.8551C25.976 34.9623 25.2808 33.0671 24.7112 31.2217C24.678 31.1166 24.6914 31.002 24.7467 30.9072C24.802 30.8116 24.8953 30.7437 25.0027 30.72C26.8592 30.3053 28.8271 29.9727 30.8519 29.7309C31.0059 29.7151 31.1521 29.7839 31.2334 29.9126C31.3148 30.0422 31.314 30.2065 31.2326 30.3353C30.4979 31.4918 29.862 32.5425 29.2885 33.5474C28.6794 34.6147 28.0916 35.7049 27.4936 36.8812C27.4248 37.0131 27.289 37.0961 27.1404 37.0961ZM25.5952 31.3986C26.051 32.8333 26.5827 34.2971 27.1792 35.7634C27.6508 34.8596 28.1193 34.0001 28.602 33.1548C29.0625 32.3482 29.5618 31.5132 30.1195 30.6189C28.5632 30.8259 27.0464 31.0874 25.5952 31.3986ZM54.5598 29.2095C54.5305 29.2095 54.5021 29.2064 54.4729 29.2C51.9544 28.6328 49.2296 28.2149 46.3754 27.9574C46.2592 27.9471 46.1526 27.8855 46.0862 27.7891C44.4012 25.3591 42.6395 23.1328 40.8509 21.1713C40.7087 21.0156 40.7142 20.7755 40.8635 20.6262C44.1823 17.3003 47.3281 15.1689 49.9596 14.4642C51.4361 14.0692 52.6756 14.1584 53.6363 14.7186C56.2867 16.267 56.7876 21.7061 54.9421 28.9133C54.8963 29.0902 54.7367 29.2095 54.5598 29.2095ZM46.6298 27.1871C49.3102 27.436 51.8777 27.8254 54.2698 28.3461C55.8901 21.7788 55.4935 16.718 53.2373 15.4003C52.4639 14.9492 51.4274 14.89 50.1634 15.2265C47.735 15.8775 44.8096 17.843 41.6883 20.9193C43.3765 22.7955 45.0371 24.9017 46.6298 27.1871ZM24.4402 29.2095C24.2633 29.2095 24.1037 29.0902 24.0579 28.9125C22.2124 21.7053 22.7125 16.267 25.3629 14.7186C25.3629 14.7186 25.3629 14.7186 25.3637 14.7186C26.3244 14.1584 27.5655 14.0692 29.0396 14.4642C31.6719 15.1696 34.8169 17.3003 38.1357 20.6262C38.2842 20.7755 38.2897 21.0156 38.1483 21.1713C36.3597 23.1328 34.598 25.3599 32.913 27.7891C32.8466 27.8855 32.7408 27.9471 32.6238 27.9574C29.7704 28.2149 27.0456 28.6328 24.5263 29.2C24.4979 29.2064 24.4695 29.2095 24.4402 29.2095ZM25.7619 15.4003C23.5064 16.718 23.1099 21.7788 24.7294 28.3461C27.1215 27.8254 29.689 27.436 32.3695 27.1871C33.9629 24.9017 35.6227 22.7955 37.3101 20.9185C34.1888 17.8422 31.2642 15.8767 28.835 15.2257C27.5765 14.89 26.5385 14.9484 25.7619 15.4003ZM43.3426 27.7464C43.3362 27.7464 43.3299 27.7464 43.3236 27.7464C40.7119 27.6193 38.2889 27.6193 35.6772 27.7464C35.5144 27.7504 35.3817 27.6722 35.3098 27.5387C35.2379 27.4044 35.249 27.2408 35.3399 27.1176C36.5936 25.4152 37.8947 23.8154 39.2077 22.3634C39.3578 22.1983 39.6438 22.1983 39.7939 22.3634C41.1061 23.8146 42.4072 25.4144 43.6617 27.1176C43.7518 27.2401 43.7636 27.4044 43.6917 27.5387C43.6214 27.6667 43.4871 27.7464 43.3426 27.7464ZM39.5 26.8601C40.4812 26.8601 41.4963 26.8806 42.5281 26.9209C41.539 25.6119 40.523 24.3708 39.5 23.2205C38.4769 24.3716 37.461 25.6119 36.4719 26.9209C37.5037 26.8806 38.5188 26.8601 39.5 26.8601Z" fill="#1F212B"/>
</svg>
