<svg width="20" height="17" viewBox="0 0 20 17" fill="none" xmlns="http://www.w3.org/2000/svg">
<path d="M18.125 0H13.125C12.0898 0 11.25 0.815848 11.25 1.82143V6.67857C11.25 7.68415 12.0898 8.5 13.125 8.5H16.25V10.9286C16.25 12.2681 15.1289 13.3571 13.75 13.3571H13.4375C12.918 13.3571 12.5 13.7632 12.5 14.2679V16.0893C12.5 16.594 12.918 17 13.4375 17H13.75C17.2031 17 20 14.283 20 10.9286V1.82143C20 0.815848 19.1602 0 18.125 0ZM6.875 0H1.875C0.839844 0 0 0.815848 0 1.82143V6.67857C0 7.68415 0.839844 8.5 1.875 8.5H5V10.9286C5 12.2681 3.87891 13.3571 2.5 13.3571H2.1875C1.66797 13.3571 1.25 13.7632 1.25 14.2679V16.0893C1.25 16.594 1.66797 17 2.1875 17H2.5C5.95312 17 8.75 14.283 8.75 10.9286V1.82143C8.75 0.815848 7.91016 0 6.875 0Z" fill="#C3CCD9"/>
</svg>
