<svg width="71" height="71" viewBox="0 0 71 71" fill="none" xmlns="http://www.w3.org/2000/svg">
<path d="M58.9699 38.3934C56.695 38.4052 54.7247 38.951 53.074 39.7661C52.4705 38.5605 51.8581 37.5 51.756 36.7116C51.6362 35.7915 51.4972 35.2413 51.6421 34.1452C51.7871 33.0492 52.4217 31.496 52.4128 31.3792C52.4039 31.2623 52.2708 30.7047 50.9588 30.6943C49.6468 30.6855 48.5241 30.9473 48.3924 31.2934C48.2608 31.6395 48.0078 32.419 47.851 33.2326C47.6218 34.4218 45.2314 38.6656 43.875 40.8843C43.4313 40.0175 43.0541 39.2543 42.9757 38.6508C42.8559 37.7307 42.7169 37.1805 42.8618 36.0844C43.0068 34.9884 43.6413 33.4352 43.6325 33.3184C43.6236 33.2015 43.4905 32.6439 42.1784 32.6335C40.8664 32.6247 39.7437 32.8865 39.6121 33.2326C39.4804 33.5787 39.3384 34.3878 39.0707 35.1718C38.8015 35.9543 35.6257 43.0321 34.793 44.8677C34.3684 45.8025 34.0001 46.554 33.7398 47.0658C33.7383 47.0643 33.7383 47.0628 33.7383 47.0628C33.7383 47.0628 33.722 47.0968 33.6954 47.1545C33.4721 47.5909 33.3404 47.832 33.3404 47.832C33.3404 47.832 33.3419 47.8349 33.3449 47.8408C33.1674 48.1618 32.978 48.4591 32.8848 48.4591C32.8198 48.4591 32.6881 47.6056 32.9129 46.4342C33.3863 43.9787 34.5208 40.1507 34.5104 40.0175C34.5045 39.9495 34.722 39.2824 33.7694 38.9333C32.8434 38.5946 32.5136 39.1596 32.4293 39.1611C32.3479 39.1626 32.2873 39.3608 32.2873 39.3608C32.2873 39.3608 33.3182 35.0549 30.32 35.0549C28.4444 35.0549 25.847 37.1065 24.5675 38.9658C23.7599 39.4066 22.0307 40.3503 20.198 41.3576C19.4939 41.7452 18.7751 42.1401 18.0932 42.5158C18.0473 42.4641 18 42.4138 17.9527 42.362C14.3154 38.4821 7.59405 35.7383 7.87805 30.5213C7.98159 28.625 8.6413 23.6313 20.7956 17.5756C30.7519 12.6145 38.7231 13.9798 40.1002 17.0047C42.0675 21.3283 35.8402 29.3616 25.5008 30.5213C21.5618 30.9635 19.4865 29.4356 18.9703 28.8676C18.4275 28.2685 18.3461 28.2419 18.1435 28.3543C17.8136 28.5377 18.0222 29.0658 18.1435 29.3808C18.4526 30.184 19.7188 31.6085 21.8784 32.3185C23.7791 32.9427 28.4044 33.2844 33.9972 31.1203C40.2629 28.6975 45.1545 21.9554 43.7168 16.3213C42.2554 10.591 32.7532 8.70652 23.7599 11.9015C18.4008 13.8037 12.6069 16.7887 8.44013 20.6848C3.4864 25.3176 2.69653 29.3513 3.02194 31.036C4.17865 37.0237 12.4309 40.9228 15.7354 43.8116C15.5727 43.9018 15.4188 43.9861 15.2798 44.063C13.6231 44.8825 7.33223 48.1751 5.7584 51.6526C3.97305 55.5976 6.0424 58.4287 7.41211 58.8103C11.6558 59.9907 16.0105 57.8666 18.352 54.3758C20.6921 50.8864 20.4066 46.341 19.3327 44.2672C19.3194 44.242 19.3046 44.2169 19.2913 44.1903C19.7188 43.9373 20.1551 43.6799 20.587 43.4255C21.4302 42.93 22.2585 42.4685 22.9759 42.078C22.5736 43.1785 22.2792 44.4994 22.1269 46.406C21.9464 48.6455 22.865 51.5402 24.066 52.6792C24.5956 53.1806 25.2316 53.1925 25.634 53.1925C27.0318 53.1925 27.6693 52.0298 28.3719 50.6542C29.2328 48.968 29.9975 47.0036 29.9975 47.0036C29.9975 47.0036 29.039 52.3079 31.6512 52.3079C32.6038 52.3079 33.5608 51.0728 33.9883 50.4442C33.9898 50.4516 33.9898 50.4545 33.9898 50.4545C33.9898 50.4545 34.0149 50.4131 34.0637 50.3318C34.1628 50.1809 34.219 50.0847 34.219 50.0847C34.219 50.0847 34.2205 50.0744 34.2235 50.0566C34.6066 49.3925 35.4556 47.8778 36.7277 45.3795C38.3725 42.152 39.9493 38.1079 39.9493 38.1079C39.9493 38.1079 40.0958 39.096 40.5765 40.732C40.859 41.6934 41.4596 42.7569 41.9344 43.7776C41.5528 44.3071 41.319 44.6103 41.319 44.6103C41.319 44.6103 41.3205 44.6163 41.325 44.6266C41.0203 45.0319 40.6786 45.4683 40.3206 45.8943C39.0219 47.44 37.4762 49.2061 37.2691 49.7149C37.025 50.3155 37.0827 50.7563 37.5546 51.1128C37.8992 51.3716 38.5116 51.413 39.1521 51.3701C40.3191 51.2917 41.1386 51.0018 41.5439 50.8258C42.1755 50.6024 42.9106 50.2519 43.5999 49.7445C44.8735 48.8082 45.6412 47.4696 45.5672 45.6946C45.5258 44.7168 45.2152 43.748 44.8202 42.8339C44.9356 42.6682 45.051 42.4996 45.1678 42.3309C47.1751 39.3963 48.7326 36.1717 48.7326 36.1717C48.7326 36.1717 48.8791 37.1598 49.3598 38.7957C49.6024 39.6226 50.0831 40.5264 50.515 41.4109C48.6276 42.9448 47.4576 44.7272 47.0508 45.8957C46.2994 48.0583 46.8881 49.0375 47.9916 49.2608C48.4915 49.3614 49.1986 49.1321 49.7296 48.9073C50.3908 48.6884 51.1851 48.323 51.9276 47.7772C53.2012 46.8409 54.4259 45.5304 54.352 43.7569C54.318 42.9492 54.099 42.1475 53.8017 41.3784C55.4022 40.7113 57.473 40.3415 60.1119 40.6491C65.7726 41.3103 66.882 44.844 66.6705 46.3232C66.4575 47.8024 65.2712 48.6159 64.8733 48.8615C64.4769 49.107 64.3556 49.1928 64.3881 49.3747C64.4369 49.6395 64.6204 49.6306 64.9591 49.5729C65.425 49.4945 67.9307 48.3704 68.0387 45.6398C68.1733 42.1697 64.8526 38.3623 58.9699 38.3934ZM15.339 53.1022C13.4634 55.1479 10.8453 55.92 9.72109 55.2692C8.50817 54.5666 8.9889 51.555 11.289 49.3836C12.6913 48.0612 14.5018 46.8424 15.7028 46.0925C15.9765 45.9283 16.3773 45.6872 16.8655 45.3943C16.9468 45.3484 16.9927 45.3233 16.9927 45.3233L16.9912 45.3203C17.0859 45.2641 17.182 45.2064 17.2811 45.1458C18.1198 48.2358 17.3077 50.956 15.339 53.1022ZM28.9991 43.8175C28.3468 45.4091 26.98 49.4827 26.1472 49.2638C25.4328 49.0759 24.9979 45.98 26.0052 42.933C26.5111 41.3991 27.5939 39.5664 28.2299 38.8549C29.2535 37.71 30.3806 37.3358 30.6543 37.8003C31.0019 38.3919 29.4088 42.8191 28.9991 43.8175ZM40.2836 49.2017C40.007 49.3466 39.7526 49.4369 39.6358 49.3673C39.5485 49.3156 39.7496 49.1248 39.7496 49.1248C39.7496 49.1248 41.1608 47.6056 41.7169 46.9149C42.0409 46.5125 42.4151 46.0348 42.8234 45.5023C42.8263 45.5555 42.8278 45.6088 42.8278 45.6605C42.8248 47.4799 41.0676 48.7076 40.2836 49.2017ZM48.9767 47.2196C48.7696 47.0732 48.8051 46.5983 49.484 45.1177C49.7503 44.5364 50.3597 43.5587 51.4158 42.6238C51.5386 43.0084 51.6126 43.3767 51.6111 43.7199C51.5978 46.0096 49.9648 46.8646 48.9767 47.2196Z" fill="#F06292"/>
</svg>
