<svg width="749" height="615" viewBox="0 0 749 615" fill="none" xmlns="http://www.w3.org/2000/svg">
<path opacity="0.08" d="M341 526.264C473.631 526.264 581.149 518.565 581.149 509.068C581.149 499.57 473.631 491.871 341 491.871C208.369 491.871 100.851 499.57 100.851 509.068C100.851 518.565 208.369 526.264 341 526.264Z" fill="black"/>
<path d="M166.58 374.512L560.137 374.512V88.7357L166.58 88.7357L166.58 374.512Z" fill="#4E62DE"/>
<path opacity="0.55" d="M325.353 235.51L316.989 246.016C308.095 257.171 303.895 271.351 305.28 285.55L306.891 301.87L331.371 279.634L325.353 235.51Z" fill="#878787"/>
<path opacity="0.55" d="M384.085 235.51L392.469 246.016C401.387 257.161 405.609 271.343 404.24 285.55L402.649 301.87L378.169 279.634L384.085 235.51Z" fill="#878787"/>
<path opacity="0.55" d="M343.55 283.021C343.55 283.021 351.18 327.9 338.634 331.673C326.088 335.447 320.274 315.211 303.709 327.247C287.144 339.282 308.38 352.583 279.127 348.891C249.873 345.198 238.551 359.621 245.426 374.431H461.36C461.36 374.431 472.192 360.702 460.136 351.359C457.515 349.389 454.5 348.005 451.298 347.301C448.095 346.597 444.778 346.59 441.572 347.279C440.687 347.429 439.78 347.382 438.916 347.142C438.051 346.902 437.25 346.475 436.569 345.891C435.887 345.307 435.343 344.581 434.974 343.763C434.604 342.945 434.419 342.056 434.432 341.159C434.554 336.753 433.8 331.714 430.352 328.654C426.272 324.942 417.602 328.817 411.156 332.734C403.835 337.24 395.219 339.171 386.676 338.222C379.189 337.324 371.539 334.856 369.438 328.675C365.011 315.66 367.704 282.143 367.704 282.143L343.55 283.021Z" fill="white"/>
<path d="M354.75 142.407C354.75 142.407 292.938 176.331 331.392 279.614H378.128C416.582 176.331 354.75 142.407 354.75 142.407Z" fill="#C1C1C1"/>
<path d="M378.128 279.614L376.047 287.529H333.656L331.392 278.676L378.128 279.614Z" fill="#878787"/>
<path d="M355.198 218.864C363.964 218.864 371.07 211.759 371.07 202.993C371.07 194.228 363.964 187.123 355.198 187.123C346.433 187.123 339.327 194.228 339.327 202.993C339.327 211.759 346.433 218.864 355.198 218.864Z" fill="#E6E6E6"/>
<path d="M194.712 127.842C200.198 127.842 204.646 123.394 204.646 117.907C204.646 112.42 200.198 107.972 194.712 107.972C189.225 107.972 184.777 112.42 184.777 117.907C184.777 123.394 189.225 127.842 194.712 127.842Z" fill="#FFD200"/>
<path d="M222.68 127.842C228.167 127.842 232.615 123.394 232.615 117.907C232.615 112.42 228.167 107.972 222.68 107.972C217.193 107.972 212.745 112.42 212.745 117.907C212.745 123.394 217.193 127.842 222.68 127.842Z" fill="#68E1FD"/>
<path d="M249.445 127.842C254.932 127.842 259.38 123.394 259.38 117.907C259.38 112.42 254.932 107.972 249.445 107.972C243.958 107.972 239.51 112.42 239.51 117.907C239.51 123.394 243.958 127.842 249.445 127.842Z" fill="white"/>
<path d="M536.146 241.487H480.414V250.871H536.146V241.487Z" fill="white"/>
<path d="M536.146 266.211H480.414V275.595H536.146V266.211Z" fill="white"/>
<path d="M463.053 241.487H446.611V250.871H463.053V241.487Z" fill="#68E1FD"/>
<path d="M463.053 266.211H446.611V275.595H463.053V266.211Z" fill="#FFD200"/>
<path d="M484.596 220.619C504.864 220.619 521.295 204.188 521.295 183.92C521.295 163.652 504.864 147.221 484.596 147.221C464.327 147.221 447.896 163.652 447.896 183.92C447.896 204.188 464.327 220.619 484.596 220.619Z" fill="white"/>
<path d="M484.596 147.221V183.94L520.52 176.453C520.52 176.453 515.522 146.976 484.596 147.221Z" fill="#FFD200"/>
<path d="M484.596 183.92L464.196 214.519C464.196 214.519 484.759 230.165 508.586 211.765C508.586 211.765 524.906 199.954 520.54 176.535L484.596 183.92Z" fill="#68E1FD"/>
<path d="M148.852 253.421C148.852 253.421 71.3324 308.5 113.295 403.357H124.76C124.76 403.357 118.64 334.529 148.771 301.951C178.902 269.373 148.852 253.421 148.852 253.421Z" fill="#68E1FD"/>
<path opacity="0.2" d="M148.852 253.421C148.852 253.421 71.3324 308.5 113.295 403.357H124.76C124.76 403.357 118.64 334.529 148.771 301.951C178.902 269.373 148.852 253.421 148.852 253.421Z" fill="white"/>
<path d="M169.987 223.678L176.596 243.466L160.929 253.421L155.299 219.129L169.987 223.678Z" fill="#F4A28C"/>
<path d="M149.913 199.995C150.715 198.093 151.985 196.425 153.604 195.146C155.223 193.866 157.14 193.017 159.176 192.677C161.211 192.337 163.3 192.517 165.247 193.201C167.194 193.885 168.937 195.05 170.313 196.588C176.964 203.687 185.001 214.947 175.923 221.169C162.01 230.594 149.24 213.009 149.24 213.009C148.172 208.7 148.406 204.171 149.913 199.995Z" fill="#F4A28C"/>
<path d="M160.093 212.132C160.093 212.132 156.523 209.154 154.911 213.397C153.3 217.64 159.603 219.66 161.48 217.477C163.357 215.294 160.093 212.132 160.093 212.132Z" fill="#F4A28C"/>
<path d="M142.651 263.131C145.014 257.886 148.481 253.212 152.815 249.427C157.149 245.643 162.247 242.837 167.763 241.202C189.04 234.817 228.208 241.814 240.163 261.723C256.483 288.957 232.574 375.512 232.574 375.512L161.174 381.061C161.174 381.061 121.741 310.132 142.651 263.131Z" fill="#68E1FD"/>
<path d="M232.574 375.512L223.17 498.439H208.298L195.018 402.929L162.153 381.061L232.574 375.512Z" fill="#323880"/>
<path d="M162.153 381.061L141.631 498.439H157.563L191.998 400.93L162.153 381.061Z" fill="#323880"/>
<path opacity="0.08" d="M173.944 239.345C173.944 239.345 140.488 347.055 237.184 354.215L232.676 375.512L161.276 381.061C161.276 381.061 135.878 341.506 137 285.938C137 285.938 137.612 258.46 156.951 246.322C162.053 242.81 167.847 240.431 173.944 239.345Z" fill="black"/>
<path d="M145.364 498.195L135.756 505.375C135.347 505.61 135.032 505.978 134.864 506.418C134.696 506.858 134.686 507.343 134.835 507.79C134.984 508.237 135.283 508.619 135.681 508.87C136.08 509.121 136.553 509.227 137.02 509.17H153.116C153.657 509.17 154.176 508.955 154.559 508.572C154.941 508.189 155.156 507.671 155.156 507.13V498.358L145.364 498.195Z" fill="#68E1FD"/>
<path d="M221.313 498.195L230.35 505.273C230.77 505.507 231.093 505.882 231.264 506.331C231.434 506.78 231.441 507.274 231.283 507.728C231.124 508.181 230.811 508.564 230.398 508.809C229.985 509.054 229.498 509.146 229.024 509.068H217.58C215.957 509.068 214.4 508.423 213.252 507.275C212.105 506.127 211.46 504.571 211.46 502.948V498.174L221.313 498.195Z" fill="#68E1FD"/>
<path d="M115.111 403.378C115.111 403.378 116.682 426.429 127.616 420.432C138.55 414.434 124.76 403.378 124.76 403.378H115.111Z" fill="#F4A28C"/>
<path d="M150.444 218.395C150.444 218.395 154.891 226.432 162.214 223.944C169.538 221.455 164.254 204.095 164.254 204.095C164.254 204.095 173.128 191.304 171.864 181.145C171.15 175.597 163.704 174.76 161.031 179.738C160.207 181.299 158.988 182.616 157.495 183.557C156.002 184.499 154.288 185.032 152.524 185.103C140.019 186.388 128.575 206.114 150.444 218.395Z" fill="#FFD200"/>
<path d="M201.097 271.25C199.432 267.669 198.95 263.652 199.72 259.779C200.49 255.906 202.473 252.379 205.38 249.707C208.288 247.036 211.971 245.359 215.895 244.919C219.819 244.479 223.782 245.299 227.209 247.26C238.878 253.849 250.608 265.518 255.218 286.121C265.642 332.734 268.498 389.241 268.498 389.241L256.524 390.546C256.524 390.546 243.345 332.469 220.844 300.789C215.458 293.322 205.728 281.429 201.097 271.25Z" fill="#68E1FD"/>
<path opacity="0.2" d="M201.097 271.25C199.432 267.669 198.95 263.652 199.72 259.779C200.49 255.906 202.473 252.379 205.38 249.707C208.288 247.036 211.971 245.359 215.895 244.919C219.819 244.479 223.782 245.299 227.209 247.26C238.878 253.849 250.608 265.518 255.218 286.121C265.642 332.734 268.498 389.241 268.498 389.241L256.524 390.546C256.524 390.546 243.345 332.469 220.844 300.789C215.458 293.322 205.728 281.429 201.097 271.25Z" fill="white"/>
<path d="M258.91 390.281C258.91 390.281 252.79 407.335 260.522 408.273C270.722 409.477 268.498 389.241 268.498 389.241L258.91 390.281Z" fill="#F4A28C"/>
<path d="M408.096 399.991L415.276 359.335H364.276L359.85 393.994L336.451 394.32V399.991H408.096Z" fill="#FFD200"/>
<path d="M368.581 364.027L365.092 393.464H403.077L407.504 364.027H368.581Z" fill="white"/>
<path d="M435.268 398.645H321.13V510.781H435.268V398.645Z" fill="#D8D8D8"/>
<path opacity="0.08" d="M358.687 398.645C358.687 398.645 327.883 487.383 388.287 510.74H320.845V398.645H358.687Z" fill="black"/>
<path d="M296.916 154.687H197.282C191.604 154.687 187 159.29 187 164.969V174.352C187 180.031 191.604 184.634 197.282 184.634H296.916C302.594 184.634 307.197 180.031 307.197 174.352V164.969C307.197 159.29 302.594 154.687 296.916 154.687Z" fill="#C1C1C1"/>
<path d="M206.646 163.704H210.44V172.863H216.254V175.821H206.727L206.646 163.704Z" fill="white"/>
<path d="M225.25 173.74H221.028L220.436 175.78H216.56L221.089 163.745H225.169L229.698 175.78H225.801L225.25 173.74ZM224.475 171.15L223.149 166.743L221.823 171.068L224.475 171.15Z" fill="white"/>
<path d="M238.164 163.704H241.876V170.823C241.887 171.517 241.777 172.207 241.55 172.863C241.332 173.485 240.976 174.05 240.51 174.516C240.094 174.955 239.585 175.297 239.02 175.515C238.18 175.802 237.297 175.94 236.409 175.923C235.768 175.919 235.128 175.878 234.492 175.801C233.889 175.744 233.301 175.578 232.758 175.311C232.277 175.043 231.849 174.691 231.493 174.271C231.134 173.869 230.863 173.397 230.697 172.884C230.486 172.223 230.369 171.537 230.35 170.844V163.704H234.063V171.048C234.045 171.327 234.085 171.607 234.18 171.87C234.274 172.133 234.422 172.374 234.614 172.578C234.815 172.767 235.053 172.913 235.312 173.008C235.572 173.103 235.848 173.144 236.124 173.128C236.398 173.146 236.673 173.109 236.933 173.017C237.192 172.926 237.43 172.784 237.633 172.598C238.007 172.171 238.197 171.614 238.164 171.048V163.704Z" fill="white"/>
<path d="M244.365 163.704H247.833L252.362 170.354V163.704H255.871V175.74H252.362L247.854 169.13V175.74H244.365V163.704Z" fill="white"/>
<path d="M266.336 170.823L269.6 171.802C269.415 172.628 269.061 173.406 268.56 174.087C268.102 174.691 267.498 175.168 266.805 175.474C265.963 175.81 265.06 175.97 264.153 175.943C263.057 175.988 261.964 175.793 260.95 175.372C260.044 174.92 259.292 174.21 258.788 173.332C258.153 172.216 257.842 170.944 257.89 169.66C257.823 168.84 257.922 168.014 258.181 167.232C258.441 166.45 258.855 165.729 259.4 165.111C260.529 164.181 261.914 163.616 263.372 163.492C264.83 163.368 266.29 163.691 267.56 164.418C268.499 165.125 269.18 166.121 269.498 167.253L266.214 167.967C266.14 167.682 266.016 167.412 265.846 167.172C265.653 166.895 265.393 166.671 265.092 166.519C264.783 166.36 264.439 166.283 264.092 166.295C263.709 166.274 263.328 166.356 262.988 166.532C262.647 166.708 262.36 166.971 262.154 167.294C261.76 168.017 261.583 168.839 261.644 169.66C261.547 170.62 261.761 171.586 262.256 172.414C262.461 172.661 262.721 172.856 263.015 172.984C263.309 173.112 263.629 173.168 263.949 173.149C264.245 173.173 264.542 173.133 264.82 173.031C265.099 172.929 265.351 172.767 265.561 172.557C265.965 172.056 266.232 171.459 266.336 170.823Z" fill="white"/>
<path d="M271.416 163.704H275.128V167.927H279.208V163.704H282.942V175.74H279.188V170.823H275.108V175.699H271.395L271.416 163.704Z" fill="white"/>
<path d="M298.894 196.833H238.123V232.675H298.894V196.833Z" fill="#68E1FD"/>
</svg>
