<svg width="795" height="582" viewBox="0 0 795 582" fill="none" xmlns="http://www.w3.org/2000/svg">
<path opacity="0.45" d="M237.208 468.81C315.746 468.81 379.414 463.997 379.414 458.061C379.414 452.124 315.746 447.312 237.208 447.312C158.67 447.312 95.0026 452.124 95.0026 458.061C95.0026 463.997 158.67 468.81 237.208 468.81Z" fill="#E6E6E6"/>
<path opacity="0.45" d="M579.893 468.81C655.138 468.81 716.136 463.997 716.136 458.061C716.136 452.124 655.138 447.312 579.893 447.312C504.648 447.312 443.65 452.124 443.65 458.061C443.65 463.997 504.648 468.81 579.893 468.81Z" fill="#E6E6E6"/>
<path d="M645.182 198.912C645.182 198.912 611.653 191.501 593.03 201.276C574.407 211.052 551.034 260.446 473.025 258.796L475.668 275.367C475.668 275.367 575.918 278.705 618.51 239.941C661.102 201.177 645.182 198.912 645.182 198.912Z" fill="#FFD200"/>
<path opacity="0.44" d="M645.182 198.912C645.182 198.912 611.653 191.501 593.03 201.276C574.407 211.052 551.034 260.446 473.025 258.796L475.668 275.367C475.668 275.367 575.918 278.705 618.51 239.941C661.102 201.177 645.182 198.912 645.182 198.912Z" fill="white"/>
<path d="M641.863 162.751L641.545 196.349L623.141 194.839L630.773 171.016L641.863 162.751Z" fill="#F4A28C"/>
<path opacity="0.31" d="M628.865 176.162C631.228 175.972 633.482 175.087 635.344 173.619C635.344 173.619 634.072 179.58 626.46 184.507L628.865 176.162Z" fill="#CE8172"/>
<path d="M623.638 158.36C622.541 163.952 622.193 169.664 622.604 175.348C622.694 176.017 622.917 176.662 623.258 177.246C623.599 177.829 624.053 178.338 624.593 178.745C625.133 179.152 625.748 179.447 626.403 179.614C627.057 179.781 627.739 179.817 628.408 179.719C630.58 179.539 632.654 178.734 634.378 177.401C636.103 176.068 637.405 174.265 638.127 172.208L642.102 163.645C642.742 161.84 642.807 159.881 642.287 158.038C641.767 156.195 640.689 154.558 639.2 153.353C634.012 148.664 624.532 152.181 623.638 158.36Z" fill="#F4A28C"/>
<path d="M622.704 164.758L619.444 168.374C619.261 168.574 619.13 168.816 619.064 169.079C618.997 169.342 618.996 169.617 619.06 169.88C619.125 170.143 619.254 170.387 619.435 170.588C619.617 170.79 619.845 170.944 620.1 171.036L623.896 172.208L622.704 164.758Z" fill="#F4A28C"/>
<path d="M205.229 196.349C205.229 196.349 228.085 205.131 227.271 233.305C226.456 261.479 235.678 281.209 254.897 282.003C266.108 282.598 277.342 281.424 288.188 278.526L292.997 292.216C292.997 292.216 236.512 316.277 210.456 284.487C184.4 252.697 205.229 196.349 205.229 196.349Z" fill="#68E1FD"/>
<path opacity="0.44" d="M205.229 196.349C205.229 196.349 228.085 205.131 227.271 233.305C226.456 261.479 235.678 281.209 254.897 282.003C266.108 282.598 277.342 281.424 288.188 278.526L292.997 292.216C292.997 292.216 236.512 316.277 210.456 284.487C184.4 252.697 205.229 196.349 205.229 196.349Z" fill="#20F24E"/>
<path d="M164.923 157.128L165.221 190.706L183.625 189.216L176.013 165.373L164.923 157.128Z" fill="#F4A28C"/>
<path opacity="0.31" d="M177.901 170.519C175.541 170.33 173.288 169.453 171.422 167.996C171.422 167.996 172.694 173.957 180.326 178.864L177.901 170.519Z" fill="#CE8172"/>
<path d="M623.141 156.234C623.141 156.234 624.91 166.009 634.231 166.168L641.744 175.705L645.938 160.168C645.938 160.168 653.729 156.731 650.886 151.207C648.044 145.684 645.103 150.214 642.599 143.558C640.094 136.902 635.126 137.378 634.649 139.802C634.172 142.226 630.892 142.366 629.243 139.485C627.871 137.1 621.869 140.796 622.584 145.445C622.701 146.09 622.557 146.755 622.184 147.295C621.812 147.835 621.241 148.205 620.597 148.326C620.133 148.369 619.683 148.51 619.277 148.739C618.872 148.969 618.519 149.282 618.243 149.657C617.967 150.032 617.774 150.462 617.676 150.918C617.578 151.373 617.578 151.844 617.675 152.3C617.632 152.971 617.761 153.643 618.048 154.251C618.336 154.86 618.773 155.385 619.32 155.778C619.866 156.171 620.503 156.42 621.171 156.499C621.84 156.579 622.517 156.488 623.141 156.234V156.234Z" fill="#323880"/>
<path d="M633.456 168.274C633.456 168.274 633.953 164.301 636.855 164.996C639.756 165.691 639.061 171.275 635.006 171.354L633.456 168.274Z" fill="#F4A28C"/>
<path d="M623.141 194.839L641.545 196.349C641.545 196.349 669.748 191.938 682.925 213.178C709.339 255.836 646.295 321.045 646.295 321.045C646.295 321.045 585.04 328.198 565.821 308.329C565.821 308.329 580.827 264.26 578.442 238.093C576.057 211.926 578.362 189.653 623.141 194.839Z" fill="#FFD200"/>
<path d="M183.148 152.717C184.246 158.315 184.593 164.035 184.182 169.725C184.087 170.394 183.86 171.038 183.516 171.62C183.172 172.202 182.717 172.711 182.176 173.117C181.635 173.523 181.02 173.818 180.365 173.986C179.709 174.154 179.028 174.192 178.358 174.096C176.185 173.909 174.112 173.1 172.388 171.764C170.664 170.428 169.362 168.623 168.639 166.566L164.664 158.002C164.046 156.204 163.997 154.259 164.523 152.432C165.05 150.605 166.126 148.984 167.606 147.79C172.912 143.021 182.234 146.538 183.148 152.717Z" fill="#F4A28C"/>
<path d="M180.684 153.353C177.559 153.817 174.391 153.917 171.243 153.651C172.302 154.94 172.964 156.509 173.147 158.167C173.331 159.825 173.028 161.5 172.276 162.989C171.579 164.425 170.407 165.576 168.958 166.246C167.509 166.916 165.872 167.064 164.326 166.665L162.975 153.631C162.709 151.749 162.961 149.83 163.703 148.079C164.445 146.329 165.65 144.814 167.188 143.697C168.5 142.737 169.874 141.868 171.303 141.094C174.88 139.107 180.644 141.094 183.744 138.153C184.052 137.873 184.428 137.677 184.833 137.584C185.239 137.491 185.662 137.504 186.062 137.622C186.461 137.74 186.823 137.958 187.114 138.257C187.404 138.555 187.613 138.923 187.719 139.326C188.753 143.299 188.733 149.598 183.605 152.359C182.692 152.848 181.705 153.183 180.684 153.353V153.353Z" fill="#323880"/>
<path d="M173.33 162.632C173.33 162.632 172.912 158.717 169.931 159.313C166.95 159.91 167.725 165.592 171.76 165.691L173.33 162.632Z" fill="#F4A28C"/>
<path d="M184.062 159.115L187.322 162.731C187.508 162.936 187.639 163.185 187.704 163.455C187.768 163.725 187.763 164.006 187.69 164.274C187.617 164.541 187.477 164.786 187.284 164.985C187.091 165.184 186.851 165.331 186.587 165.413L182.85 166.566L184.062 159.115Z" fill="#F4A28C"/>
<path d="M289.3 281.765C289.3 281.765 298.94 266.565 307.347 271.393C322.353 279.996 292.938 292.116 292.938 292.116L289.3 281.765Z" fill="#F4A28C"/>
<path d="M473.641 263.227C473.641 263.227 451.322 264.717 454.382 274.096C457.443 283.474 475.569 275.367 475.569 275.367L473.641 263.227Z" fill="#F4A28C"/>
<path opacity="0.08" d="M649.376 214.807C649.376 214.807 635.682 232.51 638.484 249.001C641.287 265.492 659.691 279.659 635.285 278.626C610.878 277.593 574.706 275.725 574.706 275.725L571.983 287.229C571.983 287.229 609.189 287.904 619.027 297.64C621.808 300.127 623.711 303.445 624.452 307.101C625.193 310.756 624.734 314.553 623.141 317.926L646.295 321.046C646.295 321.046 661.5 304.237 666.806 295.335C672.113 286.434 687.337 270.917 687.337 270.917L649.376 214.807Z" fill="black"/>
<path d="M100.091 237.696C88.5829 206.82 115.851 175.467 147.791 182.838L149.917 183.315L172.058 187.944C172.058 187.944 224.826 189.931 223.236 224.841C221.646 259.75 227.211 308.29 227.211 308.29L163.035 326.589C163.035 326.589 116.487 281.626 100.091 237.696Z" fill="#20F24E"/>
<path d="M95.0026 409.66L111.578 362.969C120.085 338.967 118.117 294.918 168.52 278.427C174.15 276.645 180.026 275.76 185.931 275.804H681.871C718.203 275.804 747.678 306.343 747.22 343.775C747.22 344.272 747.22 344.769 747.22 345.266C746.048 395.573 738.615 422.138 738.615 422.138" stroke="#24285B" stroke-width="2.03" stroke-linecap="round" stroke-linejoin="round"/>
<path opacity="0.08" d="M150.812 197.819C150.812 197.819 174.026 219.675 148.407 247.034C122.788 274.394 154.369 285.957 154.369 285.957C154.369 285.957 179.968 268.214 191.178 269.268C202.387 270.321 196.464 275.725 196.464 275.725H224.289L225.045 285.957C225.045 285.957 165.36 286.474 163.094 326.668L138.41 299.468L97.3875 270.44L99.9713 242.961L150.812 197.819Z" fill="black"/>
<path d="M171.501 265.572C171.501 265.572 176.927 256.73 190.144 261.598C203.361 266.466 199.207 286.196 180.823 275.188L171.501 265.572Z" fill="#F4A28C"/>
<path d="M153.316 206.065C151.05 187.13 129.187 177.931 113.526 188.501C86.496 206.701 46.2293 242.147 62.6659 284.626C86.6948 346.557 182.313 275.725 182.313 275.725L172.912 258.022C172.912 258.022 121.635 283.235 104.185 267.4C90.0536 254.684 157.907 242.604 153.316 206.065Z" fill="#68E1FD"/>
<path opacity="0.44" d="M153.316 206.065C151.05 187.13 129.187 177.931 113.526 188.501C86.496 206.701 46.2293 242.147 62.6659 284.626C86.6948 346.557 182.313 275.725 182.313 275.725L172.912 258.022C172.912 258.022 121.635 283.235 104.185 267.4C90.0536 254.684 157.907 242.604 153.316 206.065Z" fill="#20F24E"/>
<path d="M163.094 326.668L173.946 358.955C176.522 366.586 177.16 374.737 175.803 382.675C174.447 390.614 171.138 398.091 166.175 404.435L138.807 439.463L149.957 446.696L185.334 414.905C194.424 406.702 201.178 396.238 204.909 384.578C208.641 372.918 209.218 360.479 206.581 348.524V348.524C206.358 347.52 206.45 346.471 206.845 345.521C207.24 344.571 207.917 343.766 208.786 343.214C209.655 342.663 210.672 342.392 211.7 342.439C212.728 342.486 213.716 342.849 214.531 343.477C236.393 360.664 284.093 402.289 292.898 443.894H307.307C307.307 443.894 286.876 347.332 227.231 308.488L163.094 326.668Z" fill="#323880"/>
<path d="M142.524 441.768L138.072 445.424C137.682 445.738 137.363 446.13 137.134 446.575C136.905 447.019 136.771 447.507 136.741 448.006C136.711 448.505 136.786 449.005 136.96 449.474C137.135 449.943 137.405 450.37 137.754 450.729L143.1 456.133C143.686 456.754 144.391 457.249 145.173 457.591C145.955 457.932 146.798 458.112 147.651 458.12H155.462C155.85 458.119 156.226 457.995 156.539 457.766C156.851 457.536 157.082 457.214 157.199 456.845C157.317 456.476 157.314 456.079 157.191 455.712C157.068 455.345 156.831 455.026 156.516 454.802L152.541 451.901C151.717 451.309 151.059 450.516 150.628 449.598C150.196 448.68 150.007 447.667 150.076 446.656V446.656L142.524 441.768Z" fill="#20F24E"/>
<path d="M296.535 443.775L297.449 451.723C297.54 452.491 297.797 453.23 298.202 453.889C298.607 454.548 299.152 455.111 299.797 455.538C300.442 455.966 301.172 456.248 301.937 456.364C302.702 456.481 303.484 456.429 304.227 456.213L319.948 451.504C320.66 451.29 321.289 450.859 321.747 450.273C322.205 449.686 322.47 448.972 322.505 448.229C322.539 447.486 322.343 446.75 321.942 446.123C321.541 445.496 320.955 445.009 320.266 444.729C313.906 442.265 304.843 440.159 296.535 443.775Z" fill="#20F24E"/>
<path d="M505.143 443.775L504.229 451.723C504.141 452.49 503.886 453.229 503.483 453.888C503.08 454.547 502.538 455.11 501.894 455.538C501.25 455.966 500.521 456.248 499.757 456.364C498.993 456.481 498.213 456.429 497.471 456.213L481.73 451.504C481.018 451.287 480.391 450.855 479.935 450.268C479.479 449.68 479.217 448.965 479.184 448.222C479.152 447.479 479.35 446.744 479.753 446.118C480.155 445.493 480.742 445.007 481.432 444.729C487.772 442.265 496.875 440.159 505.143 443.775Z" fill="#FFD200"/>
<path d="M650.926 443.775L651.84 451.723C651.928 452.49 652.183 453.229 652.586 453.888C652.989 454.547 653.531 455.11 654.175 455.538C654.819 455.966 655.548 456.248 656.312 456.364C657.076 456.481 657.856 456.429 658.598 456.213L674.319 451.504C675.032 451.29 675.66 450.859 676.118 450.273C676.576 449.686 676.841 448.972 676.876 448.229C676.911 447.486 676.714 446.75 676.313 446.123C675.912 445.496 675.327 445.009 674.637 444.729C668.297 442.265 659.234 440.159 650.926 443.775Z" fill="#FFD200"/>
<path d="M651.483 208.985C653.511 205.216 656.93 202.387 661.013 201.099C665.096 199.812 669.521 200.167 673.345 202.091C684.135 207.226 692.77 215.999 697.732 226.867C708.146 250.61 725.358 292.057 697.732 296.885C670.106 301.713 619.027 281.288 619.027 281.288L622.346 270.44C622.346 270.44 668.516 283.911 672.51 269.267C675.969 256.67 638.862 232.629 651.483 208.985Z" fill="#FFD200"/>
<path opacity="0.44" d="M651.483 208.985C653.511 205.216 656.93 202.387 661.013 201.099C665.096 199.812 669.521 200.167 673.345 202.091C684.135 207.226 692.77 215.999 697.732 226.867C708.146 250.61 725.358 292.057 697.732 296.885C670.106 301.713 619.027 281.288 619.027 281.288L622.346 270.44C622.346 270.44 668.516 283.911 672.51 269.267C675.969 256.67 638.862 232.629 651.483 208.985Z" fill="white"/>
<path d="M621.849 272.069C621.849 272.069 615.072 264.697 611.454 267.718C607.837 270.738 608.851 273.142 608.851 273.142C608.851 273.142 602.252 276.36 606.863 280.394C611.474 284.427 619.027 281.288 619.027 281.288L621.849 272.069Z" fill="#F4A28C"/>
<path d="M565.821 308.33L492.165 439.464L507.766 445.424C507.766 445.424 564.629 363.704 594.64 351.743C611.176 345.166 629.163 352.915 642.002 361.2C647.297 364.64 651.448 369.578 653.926 375.384C656.404 381.191 657.096 387.604 655.915 393.805L646.832 445.464L663.646 441.848L681.732 404.514C686.939 393.925 688.589 381.939 686.437 370.338C684.285 358.736 678.446 348.139 669.787 340.12C662.389 333.3 654.576 326.943 646.395 321.085C646.395 321.085 589.234 313.813 565.821 308.33Z" fill="#323880"/>
</svg>
