<svg width="781" height="588" viewBox="0 0 781 588" fill="none" xmlns="http://www.w3.org/2000/svg">
<path d="M237.932 213.878C237.932 213.878 203.919 209.353 197.085 237.751C190.252 266.148 189.275 305.507 161.94 313.387C134.605 321.266 119.473 266.577 119.473 266.577C119.473 266.577 113.128 251.247 106.294 249.16C99.4604 247.073 94.5791 262.189 106.294 271.453C106.294 271.453 116.154 341.18 168.579 338.742C221.003 336.304 237.932 264.471 237.932 213.878Z" fill="#F4A28C"/>
<path opacity="0.08" d="M237.932 213.878C237.932 213.878 203.919 209.353 197.085 237.751C190.252 266.148 189.275 305.507 161.94 313.387C134.605 321.266 119.473 266.577 119.473 266.577C119.473 266.577 113.128 251.247 106.294 249.16C99.4604 247.073 94.5791 262.189 106.294 271.453C106.294 271.453 116.154 341.18 168.579 338.742C221.003 336.304 237.932 264.471 237.932 213.878Z" fill="black"/>
<path opacity="0.45" d="M407.916 553.422C574.433 553.422 709.421 535.346 709.421 513.048C709.421 490.751 574.433 472.675 407.916 472.675C241.4 472.675 106.411 490.751 106.411 513.048C106.411 535.346 241.4 553.422 407.916 553.422Z" fill="#E6E6E6"/>
<path d="M563.296 108.362H340.457V507.587H563.296V108.362Z" fill="#C9C9C9"/>
<path d="M543.342 153.864H358.889V434.818H543.342V153.864Z" fill="white"/>
<path opacity="0.56" d="M452.55 492.589C464.595 492.589 474.36 482.835 474.36 470.803C474.36 458.771 464.595 449.017 452.55 449.017C440.505 449.017 430.741 458.771 430.741 470.803C430.741 482.835 440.505 492.589 452.55 492.589Z" fill="white"/>
<path opacity="0.12" d="M495.505 123.965H433.025V133.073H495.505V123.965Z" fill="black"/>
<path d="M410.396 139.665C416.014 139.665 420.569 135.116 420.569 129.504C420.569 123.892 416.014 119.342 410.396 119.342C404.778 119.342 400.223 123.892 400.223 129.504C400.223 135.116 404.778 139.665 410.396 139.665Z" fill="white"/>
<path d="M237.932 163.324C237.932 163.324 215.497 189.713 233.421 199.23C259.722 213.195 262.924 164.923 262.924 164.923L237.932 163.324Z" fill="#323880"/>
<path d="M239.689 165.937C239.689 165.937 235.003 175.865 234.202 183.315C234.124 184.037 234.19 184.767 234.397 185.463C234.604 186.159 234.947 186.808 235.406 187.37C235.866 187.933 236.433 188.398 237.074 188.74C237.716 189.082 238.419 189.293 239.142 189.361C241.455 189.736 243.827 189.437 245.974 188.5C248.121 187.562 249.952 186.026 251.248 184.076L257.652 176.274C258.767 174.567 259.324 172.557 259.247 170.521C259.17 168.484 258.463 166.521 257.222 164.903C252.966 158.545 242.227 159.754 239.689 165.937Z" fill="#F4A28C"/>
<path d="M255.231 178.03L257.808 213.878H237.932L243.887 188.464L255.231 178.03Z" fill="#F4A28C"/>
<path d="M237.053 172.334L232.718 175.241C232.468 175.399 232.263 175.618 232.12 175.877C231.977 176.136 231.902 176.427 231.902 176.723C231.902 177.019 231.977 177.31 232.12 177.569C232.263 177.828 232.468 178.047 232.718 178.205L236.37 180.409L237.053 172.334Z" fill="#F4A28C"/>
<path opacity="0.31" d="M243.731 189.186C246.126 188.756 248.36 187.684 250.193 186.085C250.193 186.085 251.482 193.886 242.012 196.461L243.731 189.186Z" fill="#CE8172"/>
<path d="M248.749 177.601C248.749 177.601 250.291 173.7 253.161 175.065C256.031 176.43 253.825 182.164 249.588 181.209L248.749 177.601Z" fill="#F4A28C"/>
<path d="M202.045 417.986L185.234 494.305H194.996L227.72 417.986H202.045Z" fill="#F4A28C"/>
<path d="M256.734 408.722L274.658 494.305H284.479L282.995 408.117L256.734 408.722Z" fill="#F4A28C"/>
<path d="M185.234 494.305C185.234 494.305 179.806 501.171 172.855 500.839C165.904 500.507 164.908 510.299 176.057 509.284C179.53 508.985 182.971 508.398 186.347 507.529C189.464 506.8 192.719 506.914 195.777 507.86C196.374 507.992 196.996 507.942 197.564 507.716C198.131 507.49 198.618 507.099 198.96 506.593C202.123 502.867 194.332 494.305 194.332 494.305H185.234Z" fill="#68E1FD"/>
<path d="M283.757 494.305C283.757 494.305 289.185 501.171 296.136 500.839C303.087 500.507 304.102 510.299 292.934 509.284C289.461 508.985 286.019 508.398 282.644 507.529C279.527 506.8 276.271 506.914 273.213 507.86C272.617 507.992 271.994 507.942 271.427 507.716C270.859 507.49 270.373 507.099 270.031 506.593C266.868 502.867 274.658 494.305 274.658 494.305H283.757Z" fill="#68E1FD"/>
<path opacity="0.12" d="M504.956 256.026H400.165V373.947H504.956V256.026Z" fill="black"/>
<path d="M485.216 386.819H418.557V415.315H485.216V386.819Z" fill="#FFD200"/>
<path d="M478.909 284.794L465.242 280.562C464.09 291.464 452.882 291.347 452.882 291.347C452.882 291.347 441.656 291.464 440.504 280.562L426.836 284.794L410.24 302.504L421.955 316.156L431.717 308.608L434.256 342.838H471.353L473.891 308.608L483.654 316.156L495.369 302.504L478.909 284.794Z" fill="white"/>
<path opacity="0.15" d="M340.946 226.087V244.265C340.946 244.265 353.09 250.116 370.135 242.861C387.181 235.605 395.518 250.974 416.878 242.861C438.239 234.747 444.213 252.476 467.741 246.118C491.269 239.76 498.727 237.439 511.496 244.402C524.266 251.364 552.499 245.591 563.296 237.263V213.858L532.056 191.409H367.578L340.946 226.087Z" fill="#2C2C3A"/>
<path d="M359.026 153.864L324.74 204.945H580.361L543.771 153.864H359.026Z" fill="#323880"/>
<path d="M342.996 225.249C353.09 225.249 361.252 216.16 361.252 204.945H324.74C324.74 216.16 332.921 225.249 342.996 225.249Z" fill="#323880"/>
<path d="M379.527 225.249C389.602 225.249 397.783 216.16 397.783 204.945H361.212C361.212 216.16 369.433 225.249 379.527 225.249Z" fill="#FAFAFA"/>
<path d="M416.039 225.249C426.114 225.249 434.295 216.16 434.295 204.945H397.783C397.783 216.16 405.944 225.249 416.039 225.249Z" fill="#323880"/>
<path d="M452.55 225.249C462.645 225.249 470.806 216.16 470.806 204.945H434.295C434.295 216.16 442.476 225.249 452.55 225.249Z" fill="#FAFAFA"/>
<path d="M489.082 225.249C499.157 225.249 507.338 216.16 507.338 204.945H470.806C470.806 216.16 478.987 225.249 489.082 225.249Z" fill="#323880"/>
<path d="M525.593 225.249C535.668 225.249 543.849 216.16 543.849 204.945H507.338C507.338 216.16 515.46 225.249 525.593 225.249Z" fill="#FAFAFA"/>
<path d="M562.105 225.249C572.2 225.249 580.361 216.16 580.361 204.945H543.849C543.849 216.16 552.03 225.249 562.105 225.249Z" fill="#323880"/>
<path d="M361.252 204.945L381.87 153.864H405.69L397.783 204.945H361.252Z" fill="#FAFAFA"/>
<path d="M543.791 204.945L523.192 153.864H499.371L507.279 204.945H543.791Z" fill="#FAFAFA"/>
<path d="M434.295 204.945L436.091 153.864H468.62L470.806 204.945H434.295Z" fill="#FAFAFA"/>
<path d="M240.997 150.276C239.396 150.887 237.968 151.88 236.838 153.168C235.708 154.457 234.911 156.001 234.515 157.668C233.851 160.691 234.398 164.357 239.279 166.834C249.041 171.788 253.278 168.512 252.458 174.831C251.638 181.15 241.056 202.995 262.865 201.532C284.675 200.069 277.509 186.982 273.604 179.219C269.699 171.457 269.543 164.806 268.078 159.716C266.731 155.132 255.602 144.502 240.997 150.276Z" fill="#323880"/>
<path d="M237.932 213.878H257.73C257.73 213.878 259.097 213.878 261.44 213.878C304.785 215.263 329.973 263.359 306.953 300.085C294.144 320.506 278.856 348.026 277.841 364.448L200.58 360.547C200.58 360.547 206.438 310.481 192.126 281.869C192.204 281.908 165.962 236.873 237.932 213.878Z" fill="#68E1FD"/>
<path d="M242.481 350.561C242.364 349.684 239.845 328.619 254.704 319.57L255.719 321.227C241.934 329.634 244.394 350.113 244.414 350.327L242.481 350.561Z" fill="white"/>
<path opacity="0.08" d="M280.301 229.422C280.301 229.422 247.87 241.768 262.924 293.785C270.734 320.876 201.029 317.931 201.029 317.931C201.029 317.931 202.299 338.722 201.576 348.182L237.073 350.132L280.301 352.941L282.41 346.856L295.55 322.144L296.78 289.963L286.529 272.038L280.301 229.422Z" fill="black"/>
<path d="M267.082 350.561C266.965 349.684 264.193 327.956 279.403 319.745L280.301 321.227C266.536 329.634 268.976 350.113 269.015 350.327L267.082 350.561Z" fill="white"/>
<path d="M201.576 348.104L280.477 352.258L301.544 432.088L187.499 428.031L201.576 348.104Z" fill="#323880"/>
<path d="M273.096 243.914C272.953 240.397 273.92 236.923 275.861 233.984C277.802 231.046 280.618 228.791 283.912 227.538C287.205 226.286 290.81 226.099 294.216 227.004C297.621 227.909 300.656 229.86 302.891 232.582C314.07 246.021 319.988 263.056 319.546 280.523C318.902 327.332 312.595 377.809 211.729 322.554L217.157 307.75C217.157 307.75 261.928 329.205 280.633 322.261C294.378 317.132 274.521 275.998 273.096 243.914Z" fill="#F4A28C"/>
<path d="M217.157 307.75C217.157 307.75 200.327 299.754 193.18 307.75C186.034 315.747 197.398 322.866 211.729 322.554L217.157 307.75Z" fill="#F4A28C"/>
<path d="M235.003 346.699L292.426 352.219L294.71 422.18L219.129 417.811L235.003 346.699Z" fill="#FFD200"/>
<path opacity="0.08" d="M235.003 346.699L292.426 352.219L294.71 422.18L219.129 417.811L235.003 346.699Z" fill="black"/>
<path d="M247.636 347.909L300.177 353.077L309.1 422.901L233.539 418.552L247.636 347.909Z" fill="#FFD200"/>
<path d="M120.51 219.957L97.3716 227.462L110.638 268.273L133.777 260.768L120.51 219.957Z" fill="#FFD200"/>
<path d="M261.85 355.086L260.21 354.033C260.21 353.858 271.339 336.48 264.759 322.983C263.719 321.413 262.121 320.298 260.288 319.862C259.406 319.767 258.513 319.862 257.671 320.141C256.829 320.42 256.056 320.877 255.407 321.481L253.591 320.486C254.491 319.56 255.589 318.849 256.803 318.407C258.016 317.965 259.315 317.802 260.6 317.931C263.02 318.476 265.126 319.956 266.458 322.047C273.565 336.616 262.318 354.345 261.85 355.086Z" fill="white"/>
<path d="M284.655 356.412L283.015 355.359C283.132 355.184 294.144 337.806 287.584 324.309C286.534 322.741 284.93 321.626 283.093 321.188C282.088 321.087 281.073 321.209 280.121 321.546C279.169 321.883 278.303 322.427 277.587 323.139L276.415 321.793C277.313 320.871 278.409 320.164 279.619 319.724C280.83 319.285 282.124 319.126 283.405 319.257C284.606 319.52 285.743 320.02 286.749 320.726C287.754 321.433 288.609 322.333 289.263 323.373C296.389 337.903 285.065 355.652 284.655 356.412Z" fill="white"/>
<path opacity="0.52" d="M477.406 391.422H448.763V401.057H477.406V391.422Z" fill="white"/>
<path opacity="0.55" d="M624.312 434.838H563.296V466.376H624.312V434.838Z" fill="#E6E6E6"/>
<path d="M654.087 466.376H563.296V507.587H654.087V466.376Z" fill="#E6E6E6"/>
</svg>
