<svg width="778" height="619" viewBox="0 0 778 619" fill="none" xmlns="http://www.w3.org/2000/svg">
<path opacity="0.45" d="M181.441 550.302C245.725 550.302 297.838 540.429 297.838 528.25C297.838 516.071 245.725 506.198 181.441 506.198C117.157 506.198 65.0437 516.071 65.0437 528.25C65.0437 540.429 117.157 550.302 181.441 550.302Z" fill="#E6E6E6"/>
<path d="M616.304 158.178H187.126V440.29H616.304V158.178Z" fill="#E6E6E6"/>
<path d="M207.877 183.925C211.754 183.925 214.897 180.781 214.897 176.903C214.897 173.025 211.754 169.881 207.877 169.881C204 169.881 200.858 173.025 200.858 176.903C200.858 180.781 204 183.925 207.877 183.925Z" fill="#24285B"/>
<path d="M228.731 183.925C232.607 183.925 235.75 180.781 235.75 176.903C235.75 173.025 232.607 169.881 228.731 169.881C224.854 169.881 221.711 173.025 221.711 176.903C221.711 180.781 224.854 183.925 228.731 183.925Z" fill="#68E1FD"/>
<path d="M248.394 183.925C252.27 183.925 255.413 180.781 255.413 176.903C255.413 173.025 252.27 169.881 248.394 169.881C244.517 169.881 241.374 173.025 241.374 176.903C241.374 180.781 244.517 183.925 248.394 183.925Z" fill="#FFD200"/>
<path opacity="0.08" d="M546.745 158.178L445.659 158.588L429.486 181.359L277.088 321.368L289.608 345.698L246.813 362.576H205.106L199.585 440.29H248.353L255.249 394.914C296.073 389.473 322.981 352.043 322.981 352.043L500.81 275.971L478.233 223.942L508.261 209.57L509.923 218.994C509.923 218.994 526.158 214.518 525.481 199.386C524.804 184.254 523.388 165.467 546.745 158.178Z" fill="black"/>
<path d="M463.331 100.831C460.848 120.727 450.585 161.832 408.448 180.147L414.605 190.413C414.605 190.413 473.245 171.934 487.387 124.71C493.729 103.459 489.685 94.2404 483.282 90.5035C481.337 89.4292 479.157 88.8515 476.935 88.8215C474.714 88.7916 472.519 89.3103 470.546 90.3317C468.573 91.3532 466.882 92.8458 465.624 94.6772C464.365 96.5087 463.578 98.6225 463.331 100.831Z" fill="#68E1FD"/>
<path opacity="0.2" d="M463.331 100.831C460.848 120.727 450.585 161.832 408.448 180.147L414.605 190.413C414.605 190.413 473.245 171.934 487.387 124.71C493.729 103.459 489.685 94.2404 483.282 90.5035C481.337 89.4292 479.157 88.8515 476.935 88.8215C474.714 88.7916 472.519 89.3103 470.546 90.3317C468.573 91.3532 466.882 92.8458 465.624 94.6772C464.365 96.5087 463.578 98.6225 463.331 100.831Z" fill="white"/>
<path d="M468.709 69.376L478.787 81.6748L487.653 72.1479L471.747 58.0217L468.709 69.376Z" fill="#F4A28C"/>
<path d="M461.607 46.7906C460.061 46.5504 458.479 46.7009 457.006 47.2285C455.533 47.7561 454.215 48.644 453.172 49.8113C452.13 50.9787 451.396 52.3884 451.037 53.9121C450.679 55.4358 450.707 57.025 451.119 58.5351C452.987 65.7213 457.01 75.5152 464.686 72.1479C476.406 67.0149 470.248 51.6157 470.248 51.6157C467.905 49.1924 464.899 47.514 461.607 46.7906V46.7906Z" fill="#F4A28C"/>
<path d="M477.186 143.066L457.194 153.332C455.482 154.223 453.967 155.45 452.74 156.94C451.512 158.429 450.597 160.151 450.049 162.002C449.501 163.853 449.332 165.796 449.551 167.714C449.77 169.632 450.373 171.487 451.324 173.166L469.284 204.273L478.027 198.113L467.765 169.737C467.591 169.268 467.519 168.768 467.552 168.268C467.586 167.769 467.724 167.283 467.959 166.841C468.193 166.399 468.518 166.011 468.913 165.704C469.307 165.396 469.763 165.175 470.248 165.056L490.178 160.19L486.627 169.635C485.508 172.586 485.11 175.762 485.467 178.898C485.824 182.034 486.926 185.039 488.68 187.662L507.152 215.216L514.151 210.925L505.264 186.512C504.287 183.832 504.064 180.936 504.617 178.138C505.171 175.339 506.481 172.747 508.404 170.641L518.03 160.087L477.186 143.066Z" fill="#323880"/>
<path d="M670.86 393.682H550.788V469.651H670.86V393.682Z" fill="#F2F2F2"/>
<path opacity="0.08" d="M551.096 393.682H531.577V440.29H551.096V393.682Z" fill="black"/>
<path d="M446.645 49.3982C446.645 49.3982 443.402 59.8286 454.69 57.2621C465.979 54.6955 465.117 51.1024 465.117 51.1024C465.117 51.1024 465.979 63.4217 471.623 60.6909C477.268 57.9602 474.025 51.2461 471.623 46.6469C469.222 42.0477 467.806 40.6721 461.361 39.9945C454.916 39.3169 447.445 43.0743 446.645 49.3982Z" fill="#323880"/>
<path d="M465.302 58.2887C465.302 58.2887 464.83 54.7777 468.216 55.4552C471.603 56.1328 470.269 61.0194 468.216 61.3685C466.164 61.7175 465.302 58.2887 465.302 58.2887Z" fill="#F4A28C"/>
<path d="M167.751 325.228L172.779 340.319L160.854 347.895L156.544 321.737L167.751 325.228Z" fill="#F4A28C"/>
<path d="M152.46 307.159C153.085 305.724 154.058 304.468 155.291 303.505C156.525 302.541 157.979 301.901 159.522 301.642C161.065 301.383 162.648 301.514 164.128 302.022C165.608 302.53 166.938 303.399 167.997 304.552C173.067 309.972 179.183 318.616 172.266 323.297C161.655 330.484 151.926 317.138 151.926 317.138C151.109 313.832 151.295 310.359 152.46 307.159V307.159Z" fill="#F4A28C"/>
<path d="M160.218 316.419C160.218 316.419 157.488 314.14 156.257 317.364C155.025 320.587 159.828 322.168 161.265 320.526C162.702 318.883 160.218 316.419 160.218 316.419Z" fill="#F4A28C"/>
<path d="M476.652 79.0673L487.654 72.1479C487.654 72.1479 523.388 59.9313 534.676 71.1624C545.965 82.3935 546.766 124.772 518.031 160.087L477.186 143.066C477.186 143.066 478.007 122.739 471.213 117.606C464.419 112.473 456.066 97.074 476.652 79.0673Z" fill="#68E1FD"/>
<path d="M471.336 202.733C471.336 202.733 469.099 213.122 473.101 212.752C477.104 212.383 478.027 198.01 478.027 198.01L471.336 202.733Z" fill="#68E1FD"/>
<path d="M507.357 214.744C507.357 214.744 505.12 225.113 509.123 224.764C513.125 224.415 514.028 210.021 514.028 210.021L507.357 214.744Z" fill="#68E1FD"/>
<path d="M564.048 152.983C564.048 152.983 557.151 155.96 559.696 159.369C562.241 162.777 570.964 158.178 570.964 158.178L571.498 152.983H564.048Z" fill="#F4A28C"/>
<path d="M409.289 181.359C409.289 181.359 397.959 182.283 400.34 184.89C401.51 186.302 402.983 187.432 404.65 188.196C404.65 188.196 396.44 197.374 402.413 199.201C408.386 201.028 414.215 189.592 414.215 189.592L409.289 181.359Z" fill="#F4A28C"/>
<path d="M432.53 176.026L232.379 268.436L269.016 347.844L469.167 255.435L432.53 176.026Z" fill="#FFD200"/>
<path opacity="0.58" d="M416.066 208.756L320.018 252.908L326.017 265.967L422.065 221.815L416.066 208.756Z" fill="white"/>
<path opacity="0.58" d="M428.485 235.817L332.437 279.969L338.436 293.028L434.484 248.876L428.485 235.817Z" fill="white"/>
<path d="M291.537 313.997C304.142 313.997 314.361 303.774 314.361 291.165C314.361 278.555 304.142 268.333 291.537 268.333C278.932 268.333 268.713 278.555 268.713 291.165C268.713 303.774 278.932 313.997 291.537 313.997Z" fill="white"/>
<path d="M591.613 416.945L575.603 432.508L591.613 448.092" stroke="#A5A5A5" stroke-width="2.03" stroke-linecap="round" stroke-linejoin="round"/>
<path d="M626.238 416.945L642.248 432.508L626.238 448.092" stroke="#A5A5A5" stroke-width="2.03" stroke-linecap="round" stroke-linejoin="round"/>
<path d="M615.155 416.945L599.802 448.092" stroke="#A5A5A5" stroke-width="2.03" stroke-linecap="round" stroke-linejoin="round"/>
<path opacity="0.63" d="M275.035 207.701H214.876V218.994H275.035V207.701Z" fill="#CECECE"/>
<path d="M158.186 344.918C158.186 344.918 122.945 366.271 118.327 416.37C117.941 420.516 119.058 424.663 121.473 428.055C123.888 431.447 127.44 433.858 131.483 434.849L172.779 445.012L158.186 344.918Z" fill="#68E1FD"/>
<path opacity="0.2" d="M158.186 344.918C158.186 344.918 122.945 366.271 118.327 416.37C117.941 420.516 119.058 424.663 121.473 428.055C123.888 431.447 127.44 433.858 131.483 434.849L172.779 445.012L158.186 344.918Z" fill="white"/>
<path d="M161.716 312.498C161.716 312.498 167.34 328.636 157.509 327.63C147.677 326.624 153.075 319.684 148.19 312.498C143.306 305.312 145.892 300.466 153.322 294.163C156.749 291.268 159.048 289.933 160.403 288.393C160.979 287.711 161.719 287.186 162.553 286.868C163.387 286.549 164.288 286.448 165.172 286.573C166.056 286.698 166.894 287.046 167.607 287.583C168.32 288.121 168.885 288.83 169.249 289.646C171.794 295.846 171.815 304.141 161.716 312.498Z" fill="#323880"/>
<path opacity="0.08" d="M616.304 232.751H526.117V374.608H616.304V232.751Z" fill="black"/>
<path d="M165.569 401.376L97.5194 418.921L110.091 467.716L178.141 450.171L165.569 401.376Z" fill="#FFD200"/>
<path opacity="0.08" d="M137.702 407.747L145.502 440.29L143.47 458.215L161.716 453.492L167.156 438.956L149.627 404.646L137.702 407.747Z" fill="black"/>
<path d="M150.038 355.41C151.712 351.694 154.169 348.383 157.24 345.704C160.311 343.025 163.925 341.041 167.833 339.888C182.898 335.35 211.51 325.864 219.966 339.888C231.543 359.188 213.809 434.972 213.809 434.972L163.174 438.894C163.174 438.894 135.239 388.713 150.038 355.41Z" fill="#68E1FD"/>
<path d="M213.727 435.034L207.056 522.111H196.527L187.126 454.457L163.851 438.955L213.727 435.034Z" fill="#323880"/>
<path d="M163.851 438.956L149.319 522.111H160.608L184.992 453.041L163.851 438.956Z" fill="#323880"/>
<path d="M189.733 351.488C189.05 349.351 188.877 347.084 189.228 344.868C189.578 342.652 190.442 340.549 191.751 338.727C193.059 336.905 194.776 335.415 196.764 334.375C198.752 333.336 200.955 332.777 203.198 332.743C209.642 332.537 217.052 333.646 222.737 338.245C235.401 348.511 276.923 355.492 314.402 321.183L321.606 332.25C321.606 332.25 279.037 387.687 212.372 371.754C207.304 370.605 202.603 368.207 198.696 364.78C194.789 361.352 191.8 357.002 190 352.125C189.897 351.92 189.815 351.694 189.733 351.488Z" fill="#68E1FD"/>
<path opacity="0.2" d="M189.733 351.488C189.05 349.351 188.877 347.084 189.228 344.868C189.578 342.652 190.442 340.549 191.751 338.727C193.059 336.905 194.776 335.415 196.764 334.375C198.752 333.336 200.955 332.777 203.198 332.743C209.642 332.537 217.052 333.646 222.737 338.245C235.401 348.511 276.923 355.492 314.402 321.183L321.606 332.25C321.606 332.25 279.037 387.687 212.372 371.754C207.304 370.605 202.603 368.207 198.696 364.78C194.789 361.352 191.8 357.002 190 352.125C189.897 351.92 189.815 351.694 189.733 351.488Z" fill="white"/>
<path opacity="0.08" d="M172.205 338.553C172.205 338.553 148.519 414.871 216.908 419.922L213.727 435.034L163.092 438.955C151.448 418.436 145.542 395.159 145.994 371.569C145.994 371.569 146.425 352.104 160.136 343.501C163.762 341.014 167.876 339.327 172.205 338.553Z" fill="black"/>
<path d="M151.372 522.111L144.373 527.264C144.107 527.455 143.909 527.724 143.806 528.035C143.704 528.345 143.703 528.68 143.804 528.991C143.904 529.302 144.101 529.573 144.366 529.764C144.631 529.956 144.949 530.058 145.276 530.057H157.016C157.423 530.051 157.811 529.888 158.099 529.6C158.386 529.312 158.55 528.924 158.556 528.517V522.111H151.372Z" fill="#68E1FD"/>
<path d="M206.769 522.111L213.357 527.264C213.614 527.464 213.803 527.74 213.895 528.052C213.988 528.365 213.981 528.698 213.874 529.006C213.768 529.314 213.568 529.581 213.302 529.769C213.036 529.958 212.718 530.058 212.393 530.057H204.039C202.856 530.051 201.723 529.577 200.888 528.739C200.054 527.9 199.585 526.764 199.585 525.581V522.111H206.769Z" fill="#68E1FD"/>
<path d="M695.818 205.135H546.745V358.264H695.818V205.135Z" fill="#F2F2F2"/>
<path d="M665.523 242.914H573.674V248.417H665.523V242.914Z" fill="#A5A5A5"/>
<path d="M665.523 277.675H573.674V283.178H665.523V277.675Z" fill="#A5A5A5"/>
<path d="M665.523 312.436H573.674V317.939H665.523V312.436Z" fill="#A5A5A5"/>
<path d="M660.761 232.751H660.741C656.297 232.751 652.695 236.354 652.695 240.799V250.532C652.695 254.977 656.297 258.58 660.741 258.58H660.761C665.205 258.58 668.807 254.977 668.807 250.532V240.799C668.807 236.354 665.205 232.751 660.761 232.751Z" fill="#24285B"/>
<path d="M624.371 267.512H624.35C619.906 267.512 616.304 271.115 616.304 275.56V285.293C616.304 289.738 619.906 293.341 624.35 293.341H624.371C628.814 293.341 632.416 289.738 632.416 285.293V275.56C632.416 271.115 628.814 267.512 624.371 267.512Z" fill="#68E1FD"/>
<path d="M599.74 302.293H599.72C595.276 302.293 591.674 305.896 591.674 310.342V320.074C591.674 324.519 595.276 328.122 599.72 328.122H599.74C604.184 328.122 607.786 324.519 607.786 320.074V310.342C607.786 305.896 604.184 302.293 599.74 302.293Z" fill="#FFD200"/>
<path d="M503.581 366.559H335.337V404.913H503.581V366.559Z" fill="white"/>
<path d="M503.581 366.559H446.214V404.913H503.581V366.559Z" fill="#323880"/>
<path d="M319.718 329.396C319.718 329.396 328.503 332.27 330.37 319.335L315.449 322.846L319.718 329.396Z" fill="#F4A28C"/>
<path opacity="0.08" d="M494.016 150.067C494.016 150.067 511.873 146.659 518.03 122.021C524.188 97.3819 511.072 77.8147 523.736 74.7965C536.4 71.7783 541.655 103.911 541.655 103.911C541.655 103.911 542.147 129.043 518.03 160.128L494.016 150.067Z" fill="black"/>
<path d="M531.946 68.9655C542.455 72.7023 558.875 80.135 569.959 92.7212C573.103 96.3012 575.431 100.523 576.782 105.093C578.132 109.663 578.472 114.472 577.779 119.187L572.812 152.983H561.01L561.543 122.185C561.571 118.93 560.55 115.752 558.631 113.123C556.713 110.494 553.999 108.552 550.891 107.587C538.145 103.685 518.585 95.0208 518.564 78.5951C518.542 76.9767 518.911 75.3769 519.64 73.9316C520.368 72.4863 521.434 71.2381 522.748 70.2929C524.061 69.3478 525.583 68.7336 527.184 68.5025C528.786 68.2714 530.419 68.4302 531.946 68.9655V68.9655Z" fill="#68E1FD"/>
<path opacity="0.2" d="M531.946 68.9655C542.455 72.7023 558.875 80.135 569.959 92.7212C573.103 96.3012 575.431 100.523 576.782 105.093C578.132 109.663 578.472 114.472 577.779 119.187L572.812 152.983H561.01L561.543 122.185C561.571 118.93 560.55 115.752 558.631 113.123C556.713 110.494 553.999 108.552 550.891 107.587C538.145 103.685 518.585 95.0208 518.564 78.5951C518.542 76.9767 518.911 75.3769 519.64 73.9316C520.368 72.4863 521.434 71.2381 522.748 70.2929C524.061 69.3478 525.583 68.7336 527.184 68.5025C528.786 68.2714 530.419 68.4302 531.946 68.9655V68.9655Z" fill="white"/>
<path opacity="0.08" d="M502.862 338.553H426.243V347.875H502.862V338.553Z" fill="black"/>
</svg>
