<svg width="72" height="72" viewBox="0 0 72 72" fill="none" xmlns="http://www.w3.org/2000/svg">
<path d="M32.966 6.30194C32.043 6.3357 31.1201 6.69439 30.2484 7.25291C29.0861 7.99762 27.9665 9.11432 26.9051 10.4996C24.8928 13.1257 23.1013 16.7397 21.9375 20.7037L15.0926 22.9414C14.9308 22.9942 14.7873 23.0917 14.6788 23.2227C14.5702 23.3536 14.501 23.5127 14.4791 23.6814L9.90702 59.3597C9.87792 59.5871 9.93665 59.817 10.0712 60.0025C10.2058 60.1881 10.4061 60.3153 10.6312 60.3582L43.2369 66.5844C43.2735 66.5907 43.3105 66.5949 43.3476 66.5967C43.5118 66.6264 43.681 66.61 43.8363 66.5492L61.3951 62.6504C61.6168 62.6012 61.8117 62.4701 61.9408 62.2833C62.0699 62.0966 62.1236 61.8679 62.0912 61.6432C62.0912 61.6432 60.5409 50.8566 58.9869 40.0308C58.2099 34.6179 57.4317 29.1956 56.8459 25.107C56.553 23.0627 56.3084 21.3521 56.1357 20.143C56.0494 19.5384 55.9807 19.0587 55.9336 18.7262C55.91 18.5599 55.8917 18.4309 55.8791 18.3412C55.8665 18.2515 55.8526 18.1333 55.8615 18.2164C55.8518 18.1267 55.8287 18.039 55.793 17.9562C55.5453 17.3849 55.0325 17.0636 54.6891 16.9455C54.5952 16.9131 54.4966 16.8965 54.3973 16.8963C54.5003 16.8963 54.3382 16.8932 54.2021 16.884C54.066 16.8748 53.8797 16.8614 53.6607 16.8453C53.2229 16.8131 52.6552 16.7688 52.0945 16.7258C51.1431 16.6527 50.4747 16.6003 50.2137 16.5799C50.0311 16.3922 49.5652 15.9139 48.8777 15.214C48.4725 14.8015 48.0553 14.3792 47.7141 14.0381C47.3998 13.7239 47.2118 13.5317 47.0285 13.3719L47.025 13.3701C46.7981 13.1411 46.5367 12.9839 46.2217 12.9254C46.1442 12.9012 46.0638 12.8876 45.9826 12.8849C45.8313 12.8806 45.6814 12.9144 45.5467 12.9834L42.8625 13.8605C42.5075 12.3369 41.9919 11.0183 41.2752 9.9828C40.5342 8.91209 39.5449 8.12502 38.3519 7.86815C37.7098 7.73012 37.0655 7.80247 36.4447 7.99823C35.7463 7.18046 34.8944 6.59745 33.8889 6.38104H33.8871C33.5813 6.31542 33.2737 6.29068 32.966 6.30194ZM33.0205 8.10194C33.1928 8.09464 33.3562 8.10779 33.5092 8.14061C33.9608 8.23781 34.3899 8.47801 34.7924 8.86131C34.0962 9.37879 33.4386 10.0475 32.806 10.8406C31.2414 12.8023 29.8246 15.5153 28.6471 18.5082L24.0346 20.0181C25.1374 16.7232 26.6892 13.7397 28.3342 11.593C29.3054 10.3255 30.3088 9.35293 31.2187 8.76991C31.9012 8.33264 32.5035 8.12382 33.0205 8.10194ZM37.5926 9.58729C37.7224 9.58658 37.8496 9.60098 37.974 9.62772C38.6369 9.77045 39.2383 10.2032 39.7951 11.0076C40.3519 11.812 40.8257 12.9751 41.1451 14.4037L41.3209 14.365L38.9127 15.1525C38.6922 12.9899 38.2261 11.0972 37.4818 9.59959C37.5182 9.5972 37.5567 9.58748 37.5926 9.58729ZM35.8383 10.3256C35.8396 10.3281 35.8405 10.3301 35.8418 10.3326C36.505 11.6391 36.978 13.5064 37.1672 15.7203L37.1777 15.7185L30.9094 17.7699C31.9152 15.4653 33.0537 13.4165 34.2123 11.9639C34.7634 11.2729 35.3176 10.7206 35.8383 10.3256ZM44.993 15.0594L44.8559 17.9492C44.8515 18.0496 44.864 18.15 44.8928 18.2463V18.248L44.8945 18.2498C44.9344 18.3819 45.0041 18.5031 45.0983 18.604C45.1925 18.7049 45.3086 18.7828 45.4377 18.8316L45.443 18.8369L45.4588 18.8404C45.5542 18.874 45.6547 18.8912 45.7559 18.8914H45.7576C45.8961 18.8906 46.0326 18.8578 46.1564 18.7956C46.2802 18.7334 46.3879 18.6435 46.4713 18.5328L46.4766 18.531L46.4783 18.5258C46.5843 18.3827 46.6455 18.2114 46.6541 18.0336L46.7666 15.6394C47.0341 15.9084 47.3051 16.1798 47.5945 16.4744C48.4009 17.2952 49.1607 18.0793 49.1607 18.0793C49.3133 18.2357 49.5176 18.3313 49.7355 18.3482C49.7355 18.3482 50.8341 18.4342 51.9574 18.5205C52.5191 18.5636 53.0873 18.6076 53.5289 18.64C53.7497 18.6562 53.9384 18.6691 54.0809 18.6787C54.0935 18.6796 54.0981 18.6796 54.109 18.6805C54.1208 18.7646 54.133 18.851 54.1512 18.9793C54.1985 19.3129 54.2669 19.7912 54.3533 20.3961C54.5261 21.6058 54.7723 23.3175 55.0652 25.3619C55.6511 29.4508 56.4275 34.8728 57.2045 40.2857C58.6991 50.6978 60.0775 60.2955 60.1893 61.0736L44.4621 64.5664L44.5764 62.1424C44.5849 61.9662 44.5415 61.7914 44.4516 61.6396L44.5851 60.889L44.035 60.3002L43.7221 60.2439L43.0014 60.606L42.859 61.3988L42.9803 61.5289C42.8581 61.6784 42.7872 61.8633 42.7781 62.0562L42.6568 64.6402L11.8002 58.7498L16.193 24.4742L44.993 15.0594ZM45.5853 20.6879L44.8646 21.05L44.7223 21.8428L45.2742 22.4316L45.5853 22.4879L46.306 22.1275L46.4484 21.333L45.8982 20.7441L45.5853 20.6879ZM45.4166 24.2844L44.6959 24.6447L44.5535 25.4392L45.1037 26.0281L45.4166 26.0844L46.1373 25.7223L46.2797 24.9295L45.7277 24.3406L45.4166 24.2844ZM33.0293 26.2057C29.0202 26.2083 25.9083 27.6053 23.843 29.7617C21.7757 31.9201 20.7598 34.7994 20.7598 37.7C20.7598 41.2045 22.5699 43.2014 24.1734 44.5801C24.9752 45.2694 25.7209 45.8431 26.2142 46.4064C26.7076 46.9697 26.9596 47.4582 26.9596 48.1924C26.9596 48.4584 26.85 48.8347 26.6379 49.0889C26.4258 49.343 26.154 49.5265 25.585 49.5265C24.6807 49.5265 23.4364 48.9777 22.4736 48.3769C21.5108 47.7761 20.8389 47.1799 20.8389 47.1799C20.7255 47.0793 20.5886 47.0089 20.4409 46.9753C20.2931 46.9418 20.1392 46.946 19.9936 46.9878C19.8479 47.0295 19.7151 47.1073 19.6075 47.214C19.4999 47.3207 19.421 47.4529 19.3781 47.5982L17.8945 52.608C17.8538 52.746 17.8467 52.8918 17.8739 53.0331C17.9012 53.1744 17.9619 53.3071 18.051 53.4201C18.051 53.4201 21.1469 57.2846 27.0685 57.2855C29.5938 57.2855 31.8575 56.2865 33.4476 54.5223C35.0378 52.758 35.9508 50.2571 35.9508 47.3135C35.9508 43.4858 33.7962 41.1332 31.8252 39.5369C30.8397 38.7388 29.8891 38.0907 29.25 37.5189C28.6109 36.9472 28.3658 36.542 28.3658 36.1795C28.3658 36.0003 28.4024 35.5302 28.691 35.1476C28.9796 34.7651 29.5231 34.3373 31.0271 34.3373C33.0268 34.3373 34.7836 35.276 34.7836 35.276C34.8998 35.3395 35.0287 35.3767 35.1609 35.3847C35.2931 35.3927 35.4255 35.3715 35.5486 35.3224C35.6716 35.2734 35.7824 35.1978 35.8729 35.1011C35.9634 35.0043 36.0314 34.8888 36.0721 34.7627L38.1832 28.2306C38.2453 28.0378 38.2406 27.8297 38.1698 27.6399C38.099 27.4501 37.9662 27.2897 37.793 27.1848C37.793 27.1848 37.3051 26.8963 36.5062 26.6556C35.7082 26.4152 34.5436 26.1884 33.0328 26.2057H33.0293ZM45.2461 27.8808L44.5254 28.2412L44.383 29.0357L44.935 29.6246L45.2461 29.6808L45.9685 29.3187L46.1092 28.5242L45.559 27.9353L45.2461 27.8808ZM33.0398 28.0056C33.0434 28.0057 33.0469 28.0057 33.0504 28.0056C34.3733 27.9901 35.35 28.1867 35.9859 28.3783C36.1522 28.4284 36.0998 28.4252 36.2144 28.468L34.6623 33.2738C33.8378 32.9325 32.6495 32.5373 31.0271 32.5373C29.1346 32.5373 27.8982 33.2104 27.2549 34.0631C26.6115 34.9158 26.5658 35.8169 26.5658 36.1795C26.5658 37.3061 27.268 38.1613 28.0512 38.8619C28.8343 39.5625 29.7806 40.1985 30.6914 40.9361C32.5129 42.4113 34.1508 44.1355 34.1508 47.3135C34.1508 49.8877 33.3645 51.9245 32.11 53.3164C30.8554 54.7082 29.1288 55.4855 27.0685 55.4855C22.3461 55.4848 20.1612 53.0271 19.7807 52.5764L20.7422 49.3332C21.055 49.5698 21.065 49.62 21.5209 49.9045C22.6191 50.5898 24.0484 51.3265 25.585 51.3265C26.6314 51.3265 27.4974 50.8678 28.0195 50.242C28.5416 49.6162 28.7596 48.8758 28.7596 48.1924C28.7596 46.9803 28.2387 45.9858 27.5695 45.2217C26.9003 44.4575 26.0959 43.8576 25.3476 43.2142C23.8512 41.9276 22.5598 40.626 22.5598 37.7C22.5598 35.2186 23.4245 32.7993 25.142 31.0062C26.8594 29.2131 29.4358 28.0056 33.0398 28.0056ZM45.0773 31.4756L44.3566 31.8377L44.2143 32.6305L44.7644 33.2211L45.0773 33.2756L45.798 32.9152L45.9404 32.1207L45.3902 31.5318L45.0773 31.4756ZM44.9086 35.0721L44.1861 35.4342L44.0455 36.2269L44.5957 36.8158L44.9086 36.8721L45.6293 36.5117L45.7717 35.7172L45.2197 35.1283L44.9086 35.0721ZM44.7381 38.6685L44.0174 39.0289L43.875 39.8234L44.4269 40.4123L44.7381 40.4685L45.4588 40.1064L45.6012 39.3137L45.051 38.7248L44.7381 38.6685ZM44.5693 42.265L43.8486 42.6254L43.7062 43.4199L44.2564 44.0088L44.5693 44.065L45.29 43.7029L45.4324 42.9084L44.8822 42.3195L44.5693 42.265ZM44.3988 45.8597L43.6781 46.2219L43.5357 47.0146L44.0877 47.6035L44.3988 47.6598L45.1213 47.2994L45.2619 46.5049L44.7117 45.916L44.3988 45.8597ZM44.2301 49.4562L43.5094 49.8183L43.367 50.6111L43.9172 51.2L44.2301 51.2562L44.9508 50.8941L45.0932 50.1014L44.543 49.5125L44.2301 49.4562ZM44.0613 53.0527L43.3406 53.4131L43.1982 54.2076L43.7484 54.7965L44.0613 54.8527L44.782 54.4906L44.9244 53.6978L44.3725 53.109L44.0613 53.0527ZM43.8908 56.6474L43.1701 57.0096L43.0277 57.8041L43.5797 58.393L43.8908 58.4474L44.6115 58.0871L44.7539 57.2926L44.2037 56.7037L43.8908 56.6474Z" fill="#C3CCD9"/>
</svg>
